<?xml version="1.0" encoding="UTF-8" standalone="no"?>
<!-- Created with Inkscape (http://www.inkscape.org/) -->

<svg
   version="1.1"
   id="svg2"
   xml:space="preserve"
   width="645.70667"
   height="645.70679"
   viewBox="0 0 645.70666 645.70679"
   sodipodi:docname="381f3476f1365cc2b2061604765899bb.eps"
   xmlns:inkscape="http://www.inkscape.org/namespaces/inkscape"
   xmlns:sodipodi="http://sodipodi.sourceforge.net/DTD/sodipodi-0.dtd"
   xmlns="http://www.w3.org/2000/svg"
   xmlns:svg="http://www.w3.org/2000/svg"><defs
     id="defs6" /><sodipodi:namedview
     id="namedview4"
     pagecolor="#ffffff"
     bordercolor="#666666"
     borderopacity="1.0"
     inkscape:pageshadow="2"
     inkscape:pageopacity="0.0"
     inkscape:pagecheckerboard="0" /><g
     id="g8"
     inkscape:groupmode="layer"
     inkscape:label="ink_ext_XXXXXX"
     transform="matrix(1.3333333,0,0,-1.3333333,-153.58133,766.70265)"><g
       id="g10"
       transform="scale(0.1)"><path
         d="m 1175.65,3328.87 c 0,1323.49 1072.9,2396.4 2396.4,2396.4 1323.49,0 2396.4,-1072.91 2396.4,-2396.4 0,-1323.49 -1072.91,-2396.401 -2396.4,-2396.401 -1323.5,0 -2396.4,1072.911 -2396.4,2396.401"
         style="fill:#ffffff;fill-opacity:1;fill-rule:nonzero;stroke:none"
         id="path12" /><path
         d="m 3573.27,1422.35 c -1051.26,0 -1906.53,855.26 -1906.53,1906.52 0,1051.26 855.27,1906.52 1906.53,1906.52 1051.26,0 1906.52,-855.26 1906.52,-1906.52 0,-1051.26 -855.26,-1906.52 -1906.52,-1906.52 z m -0.01,4302.92 c -1323.49,0 -2396.4,-1072.9 -2396.4,-2396.4 0,-1323.5 1072.91,-2396.401 2396.4,-2396.401 1323.5,0 2396.4,1072.901 2396.4,2396.401 0,1323.5 -1072.9,2396.4 -2396.4,2396.4 z"
         style="fill:none;stroke:#354da8;stroke-width:50;stroke-linecap:butt;stroke-linejoin:miter;stroke-miterlimit:10;stroke-dasharray:none;stroke-opacity:1"
         id="path14" /><g
         id="g16"
         transform="scale(10)"><text
           transform="matrix(0.883115,0.469156,0.469156,-0.883115,254.362,509.767)"
           style="font-variant:normal;font-weight:500;font-size:28.9999px;font-family:Avenir;-inkscape-font-specification:Avenir-Medium;writing-mode:lr-tb;fill:#354da8;fill-opacity:1;fill-rule:nonzero;stroke:none"
           id="text20"><tspan
             x="0"
             y="0"
             id="tspan18">Z</tspan></text><text
           transform="matrix(0.921269,0.388926,0.388926,-0.921269,270.338,518.224)"
           style="font-variant:normal;font-weight:500;font-size:28.9999px;font-family:Avenir;-inkscape-font-specification:Avenir-Medium;writing-mode:lr-tb;fill:#354da8;fill-opacity:1;fill-rule:nonzero;stroke:none"
           id="text24"><tspan
             x="0"
             y="0"
             id="tspan22">E</tspan></text><text
           transform="matrix(0.952526,0.304457,0.304457,-0.952526,287.472,525.414)"
           style="font-variant:normal;font-weight:500;font-size:28.9999px;font-family:Avenir;-inkscape-font-specification:Avenir-Medium;writing-mode:lr-tb;fill:#354da8;fill-opacity:1;fill-rule:nonzero;stroke:none"
           id="text28"><tspan
             x="0"
             y="0"
             id="tspan26">R</tspan></text><text
           transform="matrix(0.97499,0.222247,0.222247,-0.97499,304.693,530.879)"
           style="font-variant:normal;font-weight:500;font-size:28.9999px;font-family:Avenir;-inkscape-font-specification:Avenir-Medium;writing-mode:lr-tb;fill:#354da8;fill-opacity:1;fill-rule:nonzero;stroke:none"
           id="text32"><tspan
             x="0"
             y="0"
             id="tspan30">T</tspan></text><text
           transform="matrix(0.987282,0.158976,0.158976,-0.987282,321.792,534.607)"
           style="font-variant:normal;font-weight:500;font-size:28.9999px;font-family:Avenir;-inkscape-font-specification:Avenir-Medium;writing-mode:lr-tb;fill:#354da8;fill-opacity:1;fill-rule:nonzero;stroke:none"
           id="text36"><tspan
             x="0"
             y="0"
             id="tspan34">I</tspan></text><text
           transform="matrix(0.995494,0.0948229,0.0948229,-0.995494,330.593,536.136)"
           style="font-variant:normal;font-weight:500;font-size:28.9999px;font-family:Avenir;-inkscape-font-specification:Avenir-Medium;writing-mode:lr-tb;fill:#354da8;fill-opacity:1;fill-rule:nonzero;stroke:none"
           id="text40"><tspan
             x="0"
             y="0"
             id="tspan38">F</tspan></text><text
           transform="matrix(0.999544,0.0301852,0.0301851,-0.999544,348.016,537.629)"
           style="font-variant:normal;font-weight:500;font-size:28.9999px;font-family:Avenir;-inkscape-font-specification:Avenir-Medium;writing-mode:lr-tb;fill:#354da8;fill-opacity:1;fill-rule:nonzero;stroke:none"
           id="text44"><tspan
             x="0"
             y="0"
             id="tspan42">I</tspan></text><text
           transform="matrix(0.999196,-0.0400987,-0.0400987,-0.999196,356.946,538.057)"
           style="font-variant:normal;font-weight:500;font-size:28.9999px;font-family:Avenir;-inkscape-font-specification:Avenir-Medium;writing-mode:lr-tb;fill:#354da8;fill-opacity:1;fill-rule:nonzero;stroke:none"
           id="text48"><tspan
             x="0"
             y="0"
             id="tspan46">K</tspan></text><text
           transform="matrix(0.990098,-0.14038,-0.14038,-0.990098,376.616,537.263)"
           style="font-variant:normal;font-weight:500;font-size:29px;font-family:Avenir;-inkscape-font-specification:Avenir-Medium;writing-mode:lr-tb;fill:#354da8;fill-opacity:1;fill-rule:nonzero;stroke:none"
           id="text52"><tspan
             x="0"
             y="0"
             id="tspan50">A</tspan></text><text
           transform="matrix(0.975312,-0.220833,-0.220833,-0.975312,395.031,534.648)"
           style="font-variant:normal;font-weight:500;font-size:29px;font-family:Avenir;-inkscape-font-specification:Avenir-Medium;writing-mode:lr-tb;fill:#354da8;fill-opacity:1;fill-rule:nonzero;stroke:none"
           id="text56"><tspan
             x="0"
             y="0"
             id="tspan54">T</tspan></text><text
           transform="matrix(0.943153,-0.332358,-0.332358,-0.943153,420.752,528.063)"
           style="font-variant:normal;font-weight:500;font-size:29px;font-family:Avenir;-inkscape-font-specification:Avenir-Medium;writing-mode:lr-tb;fill:#354da8;fill-opacity:1;fill-rule:nonzero;stroke:none"
           id="text60"><tspan
             x="0"
             y="0"
             id="tspan58">F</tspan></text><text
           transform="matrix(0.903301,-0.429007,-0.429007,-0.903301,437.073,522.255)"
           style="font-variant:normal;font-weight:500;font-size:29px;font-family:Avenir;-inkscape-font-specification:Avenir-Medium;writing-mode:lr-tb;fill:#354da8;fill-opacity:1;fill-rule:nonzero;stroke:none"
           id="text64"><tspan
             x="0"
             y="0"
             id="tspan62">Ü</tspan></text><text
           transform="matrix(0.857403,-0.514646,-0.514646,-0.857403,456.243,513.034)"
           style="font-variant:normal;font-weight:500;font-size:28.9999px;font-family:Avenir;-inkscape-font-specification:Avenir-Medium;writing-mode:lr-tb;fill:#354da8;fill-opacity:1;fill-rule:nonzero;stroke:none"
           id="text68"><tspan
             x="0"
             y="0"
             id="tspan66">R</tspan></text></g><g
         id="g70"
         transform="scale(10)" /><g
         id="g72"
         transform="scale(10)"><text
           transform="matrix(0.0430394,-0.99907,-0.999039,-0.0438242,131.563,334.004)"
           style="font-variant:normal;font-weight:500;font-size:29.0011px;font-family:Avenir;-inkscape-font-specification:Avenir-Medium;writing-mode:lr-tb;fill:#354da8;fill-opacity:1;fill-rule:nonzero;stroke:none"
           id="text76"><tspan
             x="0"
             y="0"
             id="tspan74">O</tspan></text><text
           transform="matrix(0.14751943,-0.9888739,-0.98869193,-0.14875621,133.08,306.785)"
           style="font-variant:normal;font-weight:500;font-size:29.0054px;font-family:Avenir;-inkscape-font-specification:Avenir-Medium;writing-mode:lr-tb;fill:#354da8;fill-opacity:1;fill-rule:nonzero;stroke:none"
           id="text80"><tspan
             x="0"
             y="0"
             id="tspan78">P</tspan></text><text
           transform="matrix(0.23672411,-0.97138901,-0.97120305,-0.23749397,136.177,286.869)"
           style="font-variant:normal;font-weight:500;font-size:29.0054px;font-family:Avenir;-inkscape-font-specification:Avenir-Medium;writing-mode:lr-tb;fill:#354da8;fill-opacity:1;fill-rule:nonzero;stroke:none"
           id="text84"><tspan
             x="0"
             y="0"
             id="tspan82">E</tspan></text><text
           transform="matrix(0.337343,-0.941384,-0.941401,-0.337289,141.134,266.628)"
           style="font-variant:normal;font-weight:500;font-size:29.0006px;font-family:Avenir;-inkscape-font-specification:Avenir-Medium;writing-mode:lr-tb;fill:#354da8;fill-opacity:1;fill-rule:nonzero;stroke:none"
           id="text88"><tspan
             x="0"
             y="0"
             id="tspan86">N</tspan></text><text
           transform="matrix(0.41587548,-0.90915963,-0.90942157,-0.41530662,150.291,242.314)"
           style="font-variant:normal;font-weight:500;font-size:29.0071px;font-family:Avenir;-inkscape-font-specification:Avenir-Medium;writing-mode:lr-tb;fill:#354da8;fill-opacity:1;fill-rule:nonzero;stroke:none"
           id="text92"><tspan
             x="0"
             y="0"
             id="tspan90">-</tspan></text><text
           transform="matrix(0.48577295,-0.87363721,-0.87408503,-0.48496727,155.189,231.345)"
           style="font-variant:normal;font-weight:500;font-size:29.0114px;font-family:Avenir;-inkscape-font-specification:Avenir-Medium;writing-mode:lr-tb;fill:#354da8;fill-opacity:1;fill-rule:nonzero;stroke:none"
           id="text96"><tspan
             x="0"
             y="0"
             id="tspan94">A</tspan></text><text
           transform="matrix(0.57406503,-0.81831291,-0.81880971,-0.57335832,166.771,210.848)"
           style="font-variant:normal;font-weight:500;font-size:29.0119px;font-family:Avenir;-inkscape-font-specification:Avenir-Medium;writing-mode:lr-tb;fill:#354da8;fill-opacity:1;fill-rule:nonzero;stroke:none"
           id="text100"><tspan
             x="0"
             y="0"
             id="tspan98">C</tspan></text><text
           transform="matrix(0.65583126,-0.75464157,-0.75490751,-0.65552732,180.398,191.699)"
           style="font-variant:normal;font-weight:500;font-size:29.006px;font-family:Avenir;-inkscape-font-specification:Avenir-Medium;writing-mode:lr-tb;fill:#354da8;fill-opacity:1;fill-rule:nonzero;stroke:none"
           id="text104"><tspan
             x="0"
             y="0"
             id="tspan102">C</tspan></text><text
           transform="matrix(0.726292,-0.687382,-0.687248,-0.726423,195.952,174.131)"
           style="font-variant:normal;font-weight:500;font-size:29.0029px;font-family:Avenir;-inkscape-font-specification:Avenir-Medium;writing-mode:lr-tb;fill:#354da8;fill-opacity:1;fill-rule:nonzero;stroke:none"
           id="text108"><tspan
             x="0"
             y="0"
             id="tspan106">E</tspan></text><text
           transform="matrix(0.78342907,-0.62095157,-0.62042074,-0.78384894,211.085,160.035)"
           style="font-variant:normal;font-weight:500;font-size:29.0096px;font-family:Avenir;-inkscape-font-specification:Avenir-Medium;writing-mode:lr-tb;fill:#354da8;fill-opacity:1;fill-rule:nonzero;stroke:none"
           id="text112"><tspan
             x="0"
             y="0"
             id="tspan110">S</tspan></text><text
           transform="matrix(0.83273665,-0.55288974,-0.55210808,-0.83325442,226.074,148.311)"
           style="font-variant:normal;font-weight:500;font-size:29.0126px;font-family:Avenir;-inkscape-font-specification:Avenir-Medium;writing-mode:lr-tb;fill:#354da8;fill-opacity:1;fill-rule:nonzero;stroke:none"
           id="text116"><tspan
             x="0"
             y="0"
             id="tspan114">S</tspan></text><text
           transform="matrix(0.86846497,-0.49494065,-0.49413098,-0.86892678,241.887,138.067)"
           style="font-variant:normal;font-weight:500;font-size:29.0117px;font-family:Avenir;-inkscape-font-specification:Avenir-Medium;writing-mode:lr-tb;fill:#354da8;fill-opacity:1;fill-rule:nonzero;stroke:none"
           id="text120"><tspan
             x="0"
             y="0"
             id="tspan118">-</tspan></text><text
           transform="matrix(0.90145566,-0.43224632,-0.43162249,-0.90175558,252.225,132.124)"
           style="font-variant:normal;font-weight:500;font-size:29.008px;font-family:Avenir;-inkscape-font-specification:Avenir-Medium;writing-mode:lr-tb;fill:#354da8;fill-opacity:1;fill-rule:nonzero;stroke:none"
           id="text124"><tspan
             x="0"
             y="0"
             id="tspan122">P</tspan></text><text
           transform="matrix(0.939508,-0.342522,-0.342469,-0.939529,270.517,123.432)"
           style="font-variant:normal;font-weight:500;font-size:29.0007px;font-family:Avenir;-inkscape-font-specification:Avenir-Medium;writing-mode:lr-tb;fill:#354da8;fill-opacity:1;fill-rule:nonzero;stroke:none"
           id="text128"><tspan
             x="0"
             y="0"
             id="tspan126">U</tspan></text><text
           transform="matrix(0.96883235,-0.24697846,-0.24771732,-0.96864239,292.617,115.594)"
           style="font-variant:normal;font-weight:500;font-size:29.0054px;font-family:Avenir;-inkscape-font-specification:Avenir-Medium;writing-mode:lr-tb;fill:#354da8;fill-opacity:1;fill-rule:nonzero;stroke:none"
           id="text132"><tspan
             x="0"
             y="0"
             id="tspan130">B</tspan></text><text
           transform="matrix(0.9866573,-0.16159311,-0.16281087,-0.98645734,313.198,110.55)"
           style="font-variant:normal;font-weight:500;font-size:29.0058px;font-family:Avenir;-inkscape-font-specification:Avenir-Medium;writing-mode:lr-tb;fill:#354da8;fill-opacity:1;fill-rule:nonzero;stroke:none"
           id="text136"><tspan
             x="0"
             y="0"
             id="tspan134">L</tspan></text><text
           transform="matrix(0.99497275,-0.09894594,-0.100146,-0.99485277,330.75,107.873)"
           style="font-variant:normal;font-weight:500;font-size:29.0036px;font-family:Avenir;-inkscape-font-specification:Avenir-Medium;writing-mode:lr-tb;fill:#354da8;fill-opacity:1;fill-rule:nonzero;stroke:none"
           id="text140"><tspan
             x="0"
             y="0"
             id="tspan138">I</tspan></text><text
           transform="matrix(0.999606,-0.0280776,-0.0285684,-0.999592,341.513,106.712)"
           style="font-variant:normal;font-weight:500;font-size:29.0005px;font-family:Avenir;-inkscape-font-specification:Avenir-Medium;writing-mode:lr-tb;fill:#354da8;fill-opacity:1;fill-rule:nonzero;stroke:none"
           id="text144"><tspan
             x="0"
             y="0"
             id="tspan142">K</tspan></text><text
           transform="matrix(0.997487,0.0708512,0.071916,-0.997411,363.38,106.208)"
           style="font-variant:normal;font-weight:500;font-size:29.0023px;font-family:Avenir;-inkscape-font-specification:Avenir-Medium;writing-mode:lr-tb;fill:#354da8;fill-opacity:1;fill-rule:nonzero;stroke:none"
           id="text148"><tspan
             x="0"
             y="0"
             id="tspan146">A</tspan></text><text
           transform="matrix(0.98799748,0.15325222,0.15446999,-0.98780752,383.963,107.758)"
           style="font-variant:normal;font-weight:500;font-size:29.0055px;font-family:Avenir;-inkscape-font-specification:Avenir-Medium;writing-mode:lr-tb;fill:#354da8;fill-opacity:1;fill-rule:nonzero;stroke:none"
           id="text152"><tspan
             x="0"
             y="0"
             id="tspan150">T</tspan></text><text
           transform="matrix(0.97546913,0.21924343,0.22013625,-0.97526517,403.069,110.96)"
           style="font-variant:normal;font-weight:500;font-size:29.0059px;font-family:Avenir;-inkscape-font-specification:Avenir-Medium;writing-mode:lr-tb;fill:#354da8;fill-opacity:1;fill-rule:nonzero;stroke:none"
           id="text156"><tspan
             x="0"
             y="0"
             id="tspan154">I</tspan></text><text
           transform="matrix(0.95359,0.301114,0.301348,-0.953514,413.807,113.15)"
           style="font-variant:normal;font-weight:500;font-size:29.0022px;font-family:Avenir;-inkscape-font-specification:Avenir-Medium;writing-mode:lr-tb;fill:#354da8;fill-opacity:1;fill-rule:nonzero;stroke:none"
           id="text160"><tspan
             x="0"
             y="0"
             id="tspan158">O</tspan></text><text
           transform="matrix(0.91051075,0.41292356,0.41236868,-0.91076569,439.857,121.615)"
           style="font-variant:normal;font-weight:500;font-size:29.0068px;font-family:Avenir;-inkscape-font-specification:Avenir-Medium;writing-mode:lr-tb;fill:#354da8;fill-opacity:1;fill-rule:nonzero;stroke:none"
           id="text164"><tspan
             x="0"
             y="0"
             id="tspan162">N</tspan></text><text
           transform="matrix(0.86414224,0.50242973,0.50161307,-0.86461804,463.543,132.721)"
           style="font-variant:normal;font-weight:500;font-size:29.012px;font-family:Avenir;-inkscape-font-specification:Avenir-Medium;writing-mode:lr-tb;fill:#354da8;fill-opacity:1;fill-rule:nonzero;stroke:none"
           id="text168"><tspan
             x="0"
             y="0"
             id="tspan166">S</tspan></text><text
           transform="matrix(0.81160087,0.58353683,0.58286109,-0.81208668,480.105,142.368)"
           style="font-variant:normal;font-weight:500;font-size:29.0115px;font-family:Avenir;-inkscape-font-specification:Avenir-Medium;writing-mode:lr-tb;fill:#354da8;fill-opacity:1;fill-rule:nonzero;stroke:none"
           id="text172"><tspan
             x="0"
             y="0"
             id="tspan170">D</tspan></text><text
           transform="matrix(0.76395139,0.64490669,0.64453778,-0.76426132,499.631,156.865)"
           style="font-variant:normal;font-weight:500;font-size:29.007px;font-family:Avenir;-inkscape-font-specification:Avenir-Medium;writing-mode:lr-tb;fill:#354da8;fill-opacity:1;fill-rule:nonzero;stroke:none"
           id="text176"><tspan
             x="0"
             y="0"
             id="tspan174">I</tspan></text><text
           transform="matrix(0.717862,0.696183,0.696125,-0.717921,507.946,163.791)"
           style="font-variant:normal;font-weight:500;font-size:29.0013px;font-family:Avenir;-inkscape-font-specification:Avenir-Medium;writing-mode:lr-tb;fill:#354da8;fill-opacity:1;fill-rule:nonzero;stroke:none"
           id="text180"><tspan
             x="0"
             y="0"
             id="tspan178">E</tspan></text><text
           transform="matrix(0.64183326,0.76649232,0.76684423,-0.64140938,522.893,178.318)"
           style="font-variant:normal;font-weight:500;font-size:29.008px;font-family:Avenir;-inkscape-font-specification:Avenir-Medium;writing-mode:lr-tb;fill:#354da8;fill-opacity:1;fill-rule:nonzero;stroke:none"
           id="text184"><tspan
             x="0"
             y="0"
             id="tspan182">N</tspan></text><text
           transform="matrix(0.56192752,0.82667269,0.82718647,-0.56116984,539.424,198.569)"
           style="font-variant:normal;font-weight:500;font-size:29.0125px;font-family:Avenir;-inkscape-font-specification:Avenir-Medium;writing-mode:lr-tb;fill:#354da8;fill-opacity:1;fill-rule:nonzero;stroke:none"
           id="text188"><tspan
             x="0"
             y="0"
             id="tspan186">S</tspan></text><text
           transform="matrix(0.48926171,0.87168919,0.87213702,-0.48846202,550.029,214.377)"
           style="font-variant:normal;font-weight:500;font-size:29.0114px;font-family:Avenir;-inkscape-font-specification:Avenir-Medium;writing-mode:lr-tb;fill:#354da8;fill-opacity:1;fill-rule:nonzero;stroke:none"
           id="text192"><tspan
             x="0"
             y="0"
             id="tspan190">T</tspan></text><text
           transform="matrix(0.40943793,0.91210403,0.91233798,-0.40891704,559.522,231.508)"
           style="font-variant:normal;font-weight:500;font-size:29.0064px;font-family:Avenir;-inkscape-font-specification:Avenir-Medium;writing-mode:lr-tb;fill:#354da8;fill-opacity:1;fill-rule:nonzero;stroke:none"
           id="text196"><tspan
             x="0"
             y="0"
             id="tspan194">E</tspan></text><text
           transform="matrix(0.28206569,0.95926593,0.95913595,-0.28250464,571.415,260.377)"
           style="font-variant:normal;font-weight:500;font-size:29.0037px;font-family:Avenir;-inkscape-font-specification:Avenir-Medium;writing-mode:lr-tb;fill:#354da8;fill-opacity:1;fill-rule:nonzero;stroke:none"
           id="text200"><tspan
             x="0"
             y="0"
             id="tspan198">2</tspan></text><text
           transform="matrix(0.19958014,0.97966751,0.97945356,-0.20062792,576.669,278.679)"
           style="font-variant:normal;font-weight:500;font-size:29.0062px;font-family:Avenir;-inkscape-font-specification:Avenir-Medium;writing-mode:lr-tb;fill:#354da8;fill-opacity:1;fill-rule:nonzero;stroke:none"
           id="text204"><tspan
             x="0"
             y="0"
             id="tspan202">0</tspan></text><text
           transform="matrix(0.11620131,0.99307937,0.99293439,-0.11744513,580.346,297.338)"
           style="font-variant:normal;font-weight:500;font-size:29.0044px;font-family:Avenir;-inkscape-font-specification:Avenir-Medium;writing-mode:lr-tb;fill:#354da8;fill-opacity:1;fill-rule:nonzero;stroke:none"
           id="text208"><tspan
             x="0"
             y="0"
             id="tspan206">2</tspan></text><text
           transform="matrix(0.0327192,0.999463,0.999446,-0.0332865,582.436,316.271)"
           style="font-variant:normal;font-weight:500;font-size:29.0007px;font-family:Avenir;-inkscape-font-specification:Avenir-Medium;writing-mode:lr-tb;fill:#354da8;fill-opacity:1;fill-rule:nonzero;stroke:none"
           id="text212"><tspan
             x="0"
             y="0"
             id="tspan210">2</tspan></text></g><path
         d="m 3310.67,4686.35 267.28,-267.28 -1352.91,-1352.69 -9.64,9.63 c -142.21,142.21 -142.21,372.87 0,515.08 l 1095.27,1095.26"
         style="fill:#d91a96;fill-opacity:1;fill-rule:nonzero;stroke:none"
         id="path214" /><path
         d="m 3825.6,1980.89 -13,-10.85 c -259.19,27.42 -359.4,-151.1 -501.65,-8.85 L 2205.79,3066.34 c -142.25,142.25 -142.25,372.89 0,515.14 l 9.61,9.61 1610.2,-1610.2"
         style="fill:#354da8;fill-opacity:1;fill-rule:nonzero;stroke:none"
         id="path216" /><path
         d="m 3310.95,1961.19 -9.15,9.15 1622.3,1622.3 9.61,-9.61 c -57.31,-167.82 39.22,-322.57 0,-515.14 L 3828.55,1962.74 c -142.25,-142.26 -375.35,-143.8 -517.6,-1.55"
         style="fill:#60c67b;fill-opacity:1;fill-rule:nonzero;stroke:none"
         id="path218" /><path
         d="m 3845.02,4686.35 -279.55,-279.76 -262.82,271.75 18.08,17.86 c 53.11,53.12 118.86,86.31 187.83,99.59 40.09,7.72 80.95,8.78 121.22,3 5.78,-0.86 11.56,-1.93 17.34,-3 68.97,-13.28 134.72,-46.47 187.83,-99.59 l 10.07,-9.85"
         style="fill:#d91a96;fill-opacity:1;fill-rule:nonzero;stroke:none"
         id="path220" /><path
         d="m 4941.25,3075.1 -9.64,-9.64 -1353.66,1353.61 0.3,0.3 266.77,266.98 1096.23,-1096.18 c 141.56,-141.56 141.56,-373.51 0,-515.07"
         style="fill:#f47520;fill-opacity:1;fill-rule:nonzero;stroke:none"
         id="path222" /><path
         d="m 3483.99,2710.52 c 11,-10.99 23.24,-20.41 36.73,-28.24 13.5,-7.83 27.33,-12.99 41.48,-15.48 14.15,-2.51 28.24,-1.75 42.23,2.24 14,4 27.16,12.16 39.49,24.49 12.65,12.65 20.9,26.23 24.73,40.73 3.83,14.49 4.34,28.98 1.51,43.48 -2.84,14.48 -8.26,28.56 -16.25,42.23 -8,13.65 -17.66,26.15 -28.99,37.48 -28.65,28.65 -57.39,44.56 -86.21,47.73 -28.82,3.16 -54.22,-6.25 -76.21,-28.23 -13.33,-13.34 -21.83,-27.33 -25.48,-41.99 -3.68,-14.66 -4.01,-29.33 -1.01,-43.98 3.01,-14.66 8.84,-28.82 17.5,-42.48 8.67,-13.66 18.83,-26.32 30.48,-37.98 z m 325.34,72.46 -53.97,-53.97 -34.99,34.98 -1,-0.99 c 7.33,-22.67 6.92,-44.57 -1.25,-65.72 -8.16,-21.16 -20.41,-39.9 -36.73,-56.22 -20.32,-20.33 -41.65,-34.48 -63.97,-42.48 -22.32,-8.01 -44.64,-10.83 -66.97,-8.5 -22.31,2.33 -44.38,9.41 -66.21,21.24 -21.82,11.82 -42.39,27.4 -61.72,46.73 -23.32,23.31 -40.32,46.64 -50.97,69.97 -10.67,23.31 -16.25,45.72 -16.74,67.22 -0.51,21.48 3.42,41.55 11.74,60.22 8.33,18.65 19.49,34.97 33.48,48.96 8,8.01 16.91,15.41 26.74,22.25 9.83,6.82 20.24,12.4 31.24,16.74 10.99,4.32 22.32,7.16 33.97,8.49 11.67,1.34 23.16,0.67 34.49,-1.99 l 1,1 -131.93,131.93 42.65,42.66 c 7.91,7.9 20.72,7.9 28.62,0 l 342.52,-342.52"
         style="fill:#231f20;fill-opacity:1;fill-rule:nonzero;stroke:none"
         id="path224" /><path
         d="m 3614.42,3104.82 56.97,56.97 258.37,-258.37 -56.96,-56.97 z m -98.45,98.46 42.66,42.65 c 7.9,7.91 20.72,7.91 28.62,0 l 39.66,-39.66 -56.97,-56.97 -53.97,53.98"
         style="fill:#231f20;fill-opacity:1;fill-rule:nonzero;stroke:none"
         id="path226" /><path
         d="m 3733.36,3223.77 53.98,53.97 37.98,-37.98 2,-0.01 c -5.67,22.99 -5.58,45.57 0.25,67.72 5.83,22.16 17.24,41.73 34.23,58.72 28.31,28.32 57.97,43.31 88.96,44.98 30.99,1.67 61.14,-12.15 90.46,-41.47 l 177.41,-177.41 -56.97,-56.98 -162.42,162.42 c -21,19.65 -40.06,30.06 -57.23,31.23 -17.16,1.17 -34.24,-6.74 -51.22,-23.73 -9.68,-9.67 -16.58,-20.08 -20.75,-31.24 -4.17,-11.17 -5.82,-22.49 -4.99,-33.99 0.83,-11.49 3.92,-22.9 9.25,-34.23 5.33,-11.33 12.66,-21.65 21.99,-30.98 l 152.42,-152.42 -56.97,-56.98 -258.38,258.38"
         style="fill:#231f20;fill-opacity:1;fill-rule:nonzero;stroke:none"
         id="path228" /><path
         d="m 4021.72,3512.12 56.97,56.97 258.37,-258.37 -56.96,-56.97 z m -98.45,98.46 42.66,42.65 c 7.9,7.91 20.71,7.91 28.62,0 l 39.66,-39.66 -56.97,-56.97 -53.97,53.98"
         style="fill:#231f20;fill-opacity:1;fill-rule:nonzero;stroke:none"
         id="path230" /></g></g></svg>
