<svg id="Ebene_1" data-name="Ebene 1" xmlns="http://www.w3.org/2000/svg" xmlns:xlink="http://www.w3.org/1999/xlink" viewBox="0 0 110.55 110.56"><defs><style>.cls-1,.cls-4{fill:none;}.cls-2{clip-path:url(#clip-path);}.cls-3{fill:#133371;}.cls-4{stroke:#133371;stroke-miterlimit:3.86;stroke-width:1.23px;}.cls-5,.cls-6{fill:#151a30;}.cls-5,.cls-8{fill-rule:evenodd;}.cls-7{fill:#ee7026;}.cls-8,.cls-9{fill:#fff;}.cls-10{fill:#8b1711;}.cls-11{fill:#29681d;}.cls-12{fill:#253473;}</style><clipPath id="clip-path" transform="translate(-2.73 -4.2)"><rect class="cls-1" x="2.73" y="4.2" width="110.55" height="110.56"/></clipPath></defs><title>DINI2016</title><g class="cls-2"><path class="cls-3" d="M58,4.82a54.66,54.66,0,1,0,54.66,54.66A54.66,54.66,0,0,0,58,4.82m0,96.55A41.89,41.89,0,1,1,99.89,59.48,41.89,41.89,0,0,1,58,101.37" transform="translate(-2.73 -4.2)"/><path class="cls-4" d="M58,4.82a54.66,54.66,0,1,0,54.66,54.66A54.66,54.66,0,0,0,58,4.82Zm0,96.55A41.89,41.89,0,1,1,99.89,59.48,41.89,41.89,0,0,1,58,101.37Z" transform="translate(-2.73 -4.2)"/><path class="cls-5" d="M47.28,56h1.34a2,2,0,0,0,1.68-.67,3.39,3.39,0,0,0,.53-2.11,3.4,3.4,0,0,0-.53-2.12,2,2,0,0,0-1.68-.67H47.28ZM44.8,58V48.34h4.11a4.22,4.22,0,0,1,3.28,1.25,5.12,5.12,0,0,1,1.14,3.58,5,5,0,0,1-1.18,3.61A4.8,4.8,0,0,1,48.59,58Z" transform="translate(-2.73 -4.2)"/><rect class="cls-6" x="52.16" y="44.14" width="2.47" height="9.63"/><path class="cls-6" d="M59.31,58V48.34H62l1.82,3.17q.44.77.84,1.53t.75,1.5q-.05-1.09-.08-2t0-1.68V48.34h2.39V58H65l-1.89-3.26q-.33-.58-.73-1.29t-.83-1.55q.07.94.1,1.75t0,1.44V58Z" transform="translate(-2.73 -4.2)"/><rect class="cls-6" x="66.91" y="44.14" width="2.46" height="9.63"/><path class="cls-7" d="M52.76,24.13c1.33,1.46,4.27,4.34,5.47,5.65-1.51,1.37-23.47,22.87-24.59,23.89-1.64-1.8-4.22-4.57-5.32-5.78,2.14-1.95,23.52-22.82,24.45-23.75" transform="translate(-2.73 -4.2)"/><polygon class="cls-8" points="30.5 47.12 27.77 44.31 28.55 43.55 30.71 44.99 29.32 42.8 30.11 42.04 32.84 44.84 32.34 45.33 29.93 42.83 31.83 45.82 31.51 46.13 28.56 44.16 31 46.63 30.5 47.12"/><path class="cls-8" d="M35.29,46.75l.48-.46-.09-.09a.83.83,0,0,0-.34-.25.35.35,0,0,0-.37.36.8.8,0,0,0,.23.35l0,0,.06.06m1.07.12.46-.45,0,0,0,0a1,1,0,0,1,.34.7,1,1,0,0,1-.38.7,1.31,1.31,0,0,1-.38.27.7.7,0,0,1-.37.06,1,1,0,0,1-.44-.17,5,5,0,0,1-.69-.63,4,4,0,0,1-.5-.59.87.87,0,0,1-.14-.39.79.79,0,0,1,.08-.4,1.39,1.39,0,0,1,.29-.39,1.2,1.2,0,0,1,.39-.27.8.8,0,0,1,.41,0,1,1,0,0,1,.37.16,4,4,0,0,1,.54.48l.16.16-1,.93,0,.05.08.09a1.55,1.55,0,0,0,.46.37.27.27,0,0,0,.31-.06.28.28,0,0,0,.09-.28.91.91,0,0,0-.25-.37" transform="translate(-2.73 -4.2)"/><path class="cls-8" d="M37.4,45.15a3.22,3.22,0,0,0,.65.57.24.24,0,0,0,.3,0,.28.28,0,0,0,.09-.31,1.74,1.74,0,0,0-.39-.51,3.6,3.6,0,0,0-.73-.64.28.28,0,0,0-.33.06.25.25,0,0,0-.06.29,2.65,2.65,0,0,0,.49.6m1.33.39a.64.64,0,0,1,0,.37.64.64,0,0,1-.19.32.62.62,0,0,1-.67.18,2.86,2.86,0,0,1-1-.74,3,3,0,0,1-.73-1A.61.61,0,0,1,36.4,44a.69.69,0,0,1,.31-.18.57.57,0,0,1,.33,0L36.19,43l.49-.47,2.73,2.8-.46.45Z" transform="translate(-2.73 -4.2)"/><path class="cls-8" d="M37.63,42.43,37.2,42l.49-.47.43.44Zm2.31,2.37-2.05-2.11.49-.47,2.05,2.11Z" transform="translate(-2.73 -4.2)"/><path class="cls-8" d="M40.1,42.07l.48-.46-.09-.09a.83.83,0,0,0-.34-.25.29.29,0,0,0-.27.1.28.28,0,0,0-.1.26A.81.81,0,0,0,40,42l0,0,.06.06m1.07.12.46-.45,0,0,0,0a1,1,0,0,1,.34.7,1.05,1.05,0,0,1-.38.7,1.31,1.31,0,0,1-.38.27.69.69,0,0,1-.37.06,1,1,0,0,1-.44-.17,5.05,5.05,0,0,1-.69-.63,4.1,4.1,0,0,1-.5-.58.88.88,0,0,1-.14-.39.77.77,0,0,1,.08-.4,1.37,1.37,0,0,1,.29-.39,1.2,1.2,0,0,1,.39-.27.79.79,0,0,1,.41,0,1,1,0,0,1,.37.16,3.8,3.8,0,0,1,.53.48l.16.16-1,.93,0,.05.08.09a1.55,1.55,0,0,0,.46.37.27.27,0,0,0,.31-.06.28.28,0,0,0,.09-.28.89.89,0,0,0-.25-.37" transform="translate(-2.73 -4.2)"/><path class="cls-9" d="M42.84,42l-2.05-2.11.48-.46.21.21a.77.77,0,0,1,0-.38.66.66,0,0,1,.19-.32.63.63,0,0,1,.48-.21.75.75,0,0,1,.49.26l1.61,1.65-.47.46-1.37-1.41a.72.72,0,0,0-.3-.21.24.24,0,0,0-.23.08.26.26,0,0,0-.09.26,1,1,0,0,0,.25.37l1.31,1.34Z" transform="translate(-2.73 -4.2)"/><polygon class="cls-9" points="41.89 36.04 41.52 35.65 40.95 33.65 40.25 34.34 39.85 33.92 41.1 32.71 41.45 33.06 42.02 35.11 42.76 34.39 43.16 34.81 41.89 36.04"/><path class="cls-8" d="M45.44,36.87l.48-.46-.09-.09a.82.82,0,0,0-.34-.25.29.29,0,0,0-.27.1.29.29,0,0,0-.1.26.81.81,0,0,0,.23.35l0,0,.06.06m1.07.12.46-.45,0,0,0,0a1,1,0,0,1,.34.7A1.05,1.05,0,0,1,47,38a1.36,1.36,0,0,1-.38.27.72.72,0,0,1-.37.06,1,1,0,0,1-.44-.17,5,5,0,0,1-.69-.63,4,4,0,0,1-.5-.59.88.88,0,0,1-.14-.39.78.78,0,0,1,.08-.4,1.39,1.39,0,0,1,.3-.39,1.2,1.2,0,0,1,.39-.27.81.81,0,0,1,.41,0,.94.94,0,0,1,.37.16,3.9,3.9,0,0,1,.53.48l.16.16-1,.93,0,.05.08.09a1.55,1.55,0,0,0,.46.37.27.27,0,0,0,.31-.06.28.28,0,0,0,.09-.28.91.91,0,0,0-.25-.37" transform="translate(-2.73 -4.2)"/><path class="cls-9" d="M48.18,36.79l-2.05-2.11.48-.46.21.21a.77.77,0,0,1,0-.38.66.66,0,0,1,.19-.31.64.64,0,0,1,.48-.21.75.75,0,0,1,.49.26l1.61,1.65-.47.46-1.37-1.41a.74.74,0,0,0-.3-.21.24.24,0,0,0-.23.08.26.26,0,0,0-.08.26,1,1,0,0,0,.25.37l1.31,1.34Z" transform="translate(-2.73 -4.2)"/><path class="cls-9" d="M49.85,33.64l.14.14a.63.63,0,0,0,.24.18.19.19,0,0,0,.16-.07l0,0,0,0,.37.38-.15.18-.09.1a.63.63,0,0,1-.43.23.86.86,0,0,1-.48-.31l-1.23-1.26-.19.18L47.88,33l.19-.18-.56-.57.49-.47.56.57.2-.2.35.36-.2.2Z" transform="translate(-2.73 -4.2)"/><path class="cls-9" d="M51.22,33.82l-2.05-2.11.47-.45.33.34a1.18,1.18,0,0,1-.08-.51.6.6,0,0,1,.19-.36l.58.59-.06,0-.07.06a.46.46,0,0,0-.16.33.47.47,0,0,0,.15.34l1.2,1.24Z" transform="translate(-2.73 -4.2)"/><path class="cls-8" d="M51.74,30.75l.48-.46-.09-.09a.83.83,0,0,0-.34-.25.35.35,0,0,0-.37.36.8.8,0,0,0,.23.35l0,0,.06.06m1.07.12.46-.45,0,0,0,0a1,1,0,0,1,.34.7,1.05,1.05,0,0,1-.38.7,1.34,1.34,0,0,1-.38.27.72.72,0,0,1-.37.06,1,1,0,0,1-.44-.17,5,5,0,0,1-.69-.63,4,4,0,0,1-.5-.58.88.88,0,0,1-.14-.39.79.79,0,0,1,.08-.4,1.39,1.39,0,0,1,.29-.39,1.21,1.21,0,0,1,.39-.27.81.81,0,0,1,.41,0,.94.94,0,0,1,.37.16,3.89,3.89,0,0,1,.54.48l.16.16-1,.93,0,.05.08.09a1.55,1.55,0,0,0,.46.37.27.27,0,0,0,.31-.06.28.28,0,0,0,.09-.28.91.91,0,0,0-.25-.37" transform="translate(-2.73 -4.2)"/><path class="cls-9" d="M54.48,30.66l-2.05-2.11.48-.46.21.21a.78.78,0,0,1,0-.38.66.66,0,0,1,.19-.31.64.64,0,0,1,.48-.21.75.75,0,0,1,.49.26l1.61,1.66-.47.46L54,28.35a.74.74,0,0,0-.3-.22.24.24,0,0,0-.23.08.26.26,0,0,0-.08.26.93.93,0,0,0,.25.37L55,30.19Z" transform="translate(-2.73 -4.2)"/><path class="cls-10" d="M58.16,29.73c1.4-1.39,3.85-4.14,5-5.35C64.62,25.83,87,46.87,88.07,47.94c-1.73,1.71-4,4.05-5.17,5.21-2-2.06-23.78-22.54-24.75-23.42" transform="translate(-2.73 -4.2)"/><path class="cls-8" d="M63.22,31.46l.22.21a.49.49,0,0,0,.38.17.77.77,0,0,0,.41-.27.73.73,0,0,0,.25-.44.63.63,0,0,0-.25-.42l-.16-.15Zm1.21-1.28.18.17a.49.49,0,0,0,.36.18.69.69,0,0,0,.38-.25.55.55,0,0,0,.19-.36.57.57,0,0,0-.22-.35l-.16-.15Zm-2.11,1.2L65,28.54l.85.81a1.05,1.05,0,0,1,.38.68,1,1,0,0,1-.32.69,1.22,1.22,0,0,1-.5.35A.49.49,0,0,1,65,31a.59.59,0,0,1,.12.49,1.11,1.11,0,0,1-.32.56,1.34,1.34,0,0,1-.82.49,1,1,0,0,1-.79-.35Z" transform="translate(-2.73 -4.2)"/><path class="cls-8" d="M66.7,31l.42-.44.49.46-.42.44Zm-2.27,2.4,2-2.13.49.46-2,2.13Z" transform="translate(-2.73 -4.2)"/><path class="cls-8" d="M67.83,33.23a.28.28,0,0,0-.33-.05,3.26,3.26,0,0,0-.68.61,2.05,2.05,0,0,0-.43.56.28.28,0,0,0,.09.31.24.24,0,0,0,.3,0,5,5,0,0,0,1.11-1.18.24.24,0,0,0-.06-.29m-2.41,1.08,2.68-2.84.49.47-.84.89a.58.58,0,0,1,.33,0,.7.7,0,0,1,.31.18.61.61,0,0,1,.2.65,3,3,0,0,1-.72,1,2.87,2.87,0,0,1-.95.75.62.62,0,0,1-.67-.17.67.67,0,0,1-.2-.32.63.63,0,0,1,0-.37l-.21.22Z" transform="translate(-2.73 -4.2)"/><rect class="cls-9" x="66.95" y="34.59" width="3.91" height="0.68" transform="translate(-6.52 56.85) rotate(-46.65)"/><path class="cls-8" d="M70.57,34.65l.42-.44.49.46-.42.44ZM68.31,37l2-2.13.49.46-2,2.13Z" transform="translate(-2.73 -4.2)"/><path class="cls-8" d="M70.76,37.32l0,0a2.91,2.91,0,0,0-.52.65.26.26,0,0,0,.09.29.27.27,0,0,0,.3.08,2.26,2.26,0,0,0,.56-.49l.08-.09.12-.12a2.14,2.14,0,0,0,.44-.58.32.32,0,0,0-.38-.37,1.77,1.77,0,0,0-.5.42Zm-.53-.46a2.28,2.28,0,0,1,1-.73.91.91,0,0,1,.81.31.92.92,0,0,1,.36.79A3.35,3.35,0,0,1,70.74,39a1.15,1.15,0,0,1-1.17-1.11,2.29,2.29,0,0,1,.67-1" transform="translate(-2.73 -4.2)"/><path class="cls-9" d="M72.44,39.47l-.14.14a.62.62,0,0,0-.17.25.18.18,0,0,0,.07.16l0,0,0,0-.36.38-.18-.14-.1-.09a.64.64,0,0,1-.25-.42.85.85,0,0,1,.29-.49L72.87,38l-.19-.18.35-.37.19.18.55-.58.49.47-.55.58.2.19-.35.37-.2-.19Z" transform="translate(-2.73 -4.2)"/><path class="cls-9" d="M72.27,40.81,75,38l.49.46-.86.91a.66.66,0,0,1,.36,0,.68.68,0,0,1,.32.18.64.64,0,0,1,.23.47.75.75,0,0,1-.24.5l-1.58,1.68-.48-.45,1.35-1.43a.79.79,0,0,0,.21-.31.23.23,0,0,0-.09-.21.29.29,0,0,0-.28-.09.89.89,0,0,0-.36.26l-1.28,1.36Z" transform="translate(-2.73 -4.2)"/><path class="cls-8" d="M75.88,41.7l.48.46.09-.09a.83.83,0,0,0,.23-.35.29.29,0,0,0-.11-.26.28.28,0,0,0-.27-.09.81.81,0,0,0-.34.25l0,0-.05.06m-.07,1.08.46.44,0,0,0,0a1,1,0,0,1-.68.37,1.06,1.06,0,0,1-.71-.35,1.35,1.35,0,0,1-.29-.37.71.71,0,0,1-.08-.36,1,1,0,0,1,.15-.45,4.86,4.86,0,0,1,.6-.72,4.16,4.16,0,0,1,.56-.52.88.88,0,0,1,.39-.15.79.79,0,0,1,.4.06,1.36,1.36,0,0,1,.41.28,1.21,1.21,0,0,1,.28.38.8.8,0,0,1,.07.41.94.94,0,0,1-.14.38,3.86,3.86,0,0,1-.46.55l-.15.16-1-.92-.05,0-.08.08a1.54,1.54,0,0,0-.34.48.27.27,0,0,0,.08.3.28.28,0,0,0,.28.08.89.89,0,0,0,.36-.26" transform="translate(-2.73 -4.2)"/><polygon class="cls-8" points="73.32 40.18 76 37.34 76.48 37.79 75.08 39.28 76.25 38.92 76.77 39.41 75.47 39.72 74.76 41.55 74.22 41.04 74.72 39.89 74.42 39.97 73.8 40.63 73.32 40.18"/><path class="cls-8" d="M79.45,45.08l.48.46.08-.09a.82.82,0,0,0,.23-.35.29.29,0,0,0-.11-.26.28.28,0,0,0-.27-.09.79.79,0,0,0-.34.25l0,0-.06.06m-.07,1.07.46.44,0,0,0,0a1,1,0,0,1-.68.37,1.06,1.06,0,0,1-.71-.35,1.34,1.34,0,0,1-.29-.37A.69.69,0,0,1,78,46a1,1,0,0,1,.15-.45,5,5,0,0,1,.6-.72,4.08,4.08,0,0,1,.56-.52.86.86,0,0,1,.38-.16.78.78,0,0,1,.4.06,1.36,1.36,0,0,1,.41.28,1.23,1.23,0,0,1,.28.38.81.81,0,0,1,.07.41.94.94,0,0,1-.14.38,3.79,3.79,0,0,1-.46.55l-.15.16-1-.92-.05,0-.08.08a1.55,1.55,0,0,0-.35.48.27.27,0,0,0,.08.3.28.28,0,0,0,.28.08.91.91,0,0,0,.36-.27" transform="translate(-2.73 -4.2)"/><path class="cls-9" d="M79.62,47.77l2-2.13.48.46-.21.22a.76.76,0,0,1,.38,0,.65.65,0,0,1,.32.17.63.63,0,0,1,.23.47.75.75,0,0,1-.24.5L81,49.1l-.48-.45,1.35-1.43a.73.73,0,0,0,.2-.31.24.24,0,0,0-.09-.23.26.26,0,0,0-.26-.07,1,1,0,0,0-.35.27l-1.28,1.36Z" transform="translate(-2.73 -4.2)"/><path class="cls-11" d="M82.92,53.09c1.3,1.48,3.81,4.17,5,5.5-1.53,1.35-23.82,22.49-25,23.49-1.61-1.82-3.75-4.4-4.83-5.63C60.29,74.54,82,54,82.92,53.09" transform="translate(-2.73 -4.2)"/><polygon class="cls-8" points="61.51 73.9 58.27 71.57 58.82 71.06 61.2 72.89 59.54 70.38 59.98 69.97 62.47 71.78 60.7 69.3 61.24 68.78 63.41 72.12 62.77 72.71 60.75 71.22 62.14 73.31 61.51 73.9"/><path class="cls-8" d="M64.74,73.1l-.42-.44.49-.46.42.44ZM67,75.51l-2-2.14.49-.46,2,2.14Z" transform="translate(-2.73 -4.2)"/><path class="cls-9" d="M67.25,73.94l.45-.42.06.06a.63.63,0,0,0,.3.21.3.3,0,0,0,.26-.1.31.31,0,0,0,.11-.21.28.28,0,0,0-.09-.21c-.08-.08-.24-.1-.5-.06l-.15,0h0A1.37,1.37,0,0,1,66.41,73a.74.74,0,0,1-.23-.6,1.06,1.06,0,0,1,.37-.63.91.91,0,0,1,.64-.29,1,1,0,0,1,.64.35l0,0-.44.41,0,0a.49.49,0,0,0-.27-.17.32.32,0,0,0-.26.1.29.29,0,0,0-.1.19.24.24,0,0,0,.07.19.3.3,0,0,0,.18.09,1.42,1.42,0,0,0,.39,0l.19,0a1.31,1.31,0,0,1,1.21.21.75.75,0,0,1,.23.61,1.07,1.07,0,0,1-.37.64.82.82,0,0,1-1.33,0l0,0,0,0" transform="translate(-2.73 -4.2)"/><path class="cls-9" d="M69,72.3l.45-.42.06.06a.63.63,0,0,0,.3.21.29.29,0,0,0,.26-.1.31.31,0,0,0,.11-.21.28.28,0,0,0-.08-.21q-.12-.12-.5-.06l-.15,0h0a1.37,1.37,0,0,1-1.24-.22.74.74,0,0,1-.23-.6,1.06,1.06,0,0,1,.37-.63.9.9,0,0,1,.65-.29,1,1,0,0,1,.64.35l0,0-.44.41,0,0a.49.49,0,0,0-.27-.17.31.31,0,0,0-.26.1.29.29,0,0,0-.1.19.24.24,0,0,0,.07.19.31.31,0,0,0,.18.09,1.47,1.47,0,0,0,.39,0l.18,0a1.31,1.31,0,0,1,1.21.21.75.75,0,0,1,.23.61,1.07,1.07,0,0,1-.37.64.82.82,0,0,1-1.34,0l0,0,0,0" transform="translate(-2.73 -4.2)"/><path class="cls-8" d="M70.67,69.54l.48-.45L71.07,69a.82.82,0,0,0-.34-.25.28.28,0,0,0-.27.1.28.28,0,0,0-.11.26.81.81,0,0,0,.23.35l0,0,.06.06m1.07.14.46-.44,0,0,0,0a1,1,0,0,1,.33.7,1.05,1.05,0,0,1-.39.69,1.33,1.33,0,0,1-.38.26.69.69,0,0,1-.37.05,1,1,0,0,1-.44-.18,4.93,4.93,0,0,1-.68-.64,4,4,0,0,1-.49-.59.88.88,0,0,1-.13-.39.8.8,0,0,1,.08-.39,1.38,1.38,0,0,1,.3-.39,1.19,1.19,0,0,1,.4-.26.79.79,0,0,1,.41,0,.94.94,0,0,1,.37.16,3.78,3.78,0,0,1,.53.49L72,69l-1,.92,0,.05.08.09a1.52,1.52,0,0,0,.46.37.27.27,0,0,0,.31-.06.28.28,0,0,0,.1-.28.9.9,0,0,0-.24-.38" transform="translate(-2.73 -4.2)"/><path class="cls-9" d="M73.37,69.54l-2-2.14.49-.46.2.22a.77.77,0,0,1,0-.38.66.66,0,0,1,.19-.31.64.64,0,0,1,.48-.2.74.74,0,0,1,.49.27l1.58,1.68-.48.45L73,67.22a.73.73,0,0,0-.3-.22.24.24,0,0,0-.23.07.26.26,0,0,0-.09.26,1,1,0,0,0,.25.37l1.28,1.36Z" transform="translate(-2.73 -4.2)"/><path class="cls-9" d="M74.53,67.1l.45-.42.06.06a.63.63,0,0,0,.3.21.3.3,0,0,0,.26-.1.31.31,0,0,0,.11-.21.28.28,0,0,0-.08-.21c-.08-.08-.24-.1-.5-.06l-.15,0h0a1.37,1.37,0,0,1-1.24-.22.74.74,0,0,1-.23-.6,1.06,1.06,0,0,1,.37-.63.9.9,0,0,1,.64-.29,1,1,0,0,1,.64.35l0,0-.44.41,0,0a.48.48,0,0,0-.27-.17.31.31,0,0,0-.25.1.29.29,0,0,0-.1.19.24.24,0,0,0,.07.19.31.31,0,0,0,.18.09,1.47,1.47,0,0,0,.39,0l.18,0a1.31,1.31,0,0,1,1.21.21.75.75,0,0,1,.23.61,1.06,1.06,0,0,1-.37.64.82.82,0,0,1-1.33,0l0,0,0,0" transform="translate(-2.73 -4.2)"/><path class="cls-9" d="M77.58,64l0,0,.07.07a1.19,1.19,0,0,1,.38.75.92.92,0,0,1-.35.68.86.86,0,0,1-.79.29,3.5,3.5,0,0,1-1.67-1.78.86.86,0,0,1,.34-.77A1,1,0,0,1,76.3,63a1,1,0,0,1,.68.39l.07.08-.47.45,0,0a.8.8,0,0,0-.31-.23.24.24,0,0,0-.24.07.24.24,0,0,0-.09.24.77.77,0,0,0,.21.32l.69.74a1,1,0,0,0,.34.26.24.24,0,0,0,.25-.07.24.24,0,0,0,.08-.26,1.32,1.32,0,0,0-.3-.42l0,0Z" transform="translate(-2.73 -4.2)"/><path class="cls-9" d="M78.82,64.41l-2.68-2.85.49-.46.86.91a.64.64,0,0,1,0-.36.68.68,0,0,1,.2-.31.64.64,0,0,1,.48-.2.74.74,0,0,1,.48.27l1.58,1.68-.48.45-1.35-1.44a.76.76,0,0,0-.3-.23.23.23,0,0,0-.21.07.29.29,0,0,0-.11.27.87.87,0,0,0,.24.37l1.29,1.37Z" transform="translate(-2.73 -4.2)"/><path class="cls-8" d="M80.63,60.6a1.84,1.84,0,0,0-.14.61.52.52,0,0,0,.15.35.47.47,0,0,0,.25.16.27.27,0,0,0,.23-.09.29.29,0,0,0,.09-.29,1,1,0,0,0-.25-.4Zm1.12,1.06-.1,0-.15-.11a.73.73,0,0,1,0,.38.8.8,0,0,1-.23.34.64.64,0,0,1-.53.19,1,1,0,0,1-.57-.33.93.93,0,0,1-.28-.53,1.69,1.69,0,0,1,.18-.76l.06-.14q.17-.4,0-.56a.29.29,0,0,0-.2-.1.31.31,0,0,0-.21.1.34.34,0,0,0-.13.26.47.47,0,0,0,.15.29l0,0-.48.45a1,1,0,0,1-.32-.69,1.12,1.12,0,0,1,.41-.7,1.07,1.07,0,0,1,.69-.36,1,1,0,0,1,.65.38L81.87,61a.94.94,0,0,0,.17.15.86.86,0,0,0,.19.09Z" transform="translate(-2.73 -4.2)"/><path class="cls-9" d="M82.7,60.77,81,59l-.19.18-.35-.37.19-.18-.2-.21a.79.79,0,0,1-.26-.49.63.63,0,0,1,.24-.45l.11-.1.14-.11.35.37,0,0,0,0a.23.23,0,0,0-.09.14A.2.2,0,0,0,81,58l.19.2.2-.19.34.37-.2.19,1.67,1.78Z" transform="translate(-2.73 -4.2)"/><path class="cls-9" d="M83.55,58.49l.14.14a.64.64,0,0,0,.24.19.18.18,0,0,0,.16-.07l0,0,0,0,.36.38-.15.17-.09.1a.63.63,0,0,1-.44.22.86.86,0,0,1-.48-.32L82.13,58l-.19.18-.35-.37.19-.18L81.23,57l.5-.47.55.58.21-.19.35.37-.21.19Z" transform="translate(-2.73 -4.2)"/><path class="cls-3" d="M28.38,59c1.4-1.4,4-4.18,5.29-5.44C35.11,55,57,75.36,58.08,76.43c-1.72,1.72-4.26,4.14-5.43,5.3-2-2-23.3-21.81-24.27-22.69" transform="translate(-2.73 -4.2)"/><path class="cls-8" d="M33.09,57.66l.3.29a.6.6,0,0,0,.41.21.65.65,0,0,0,.4-.25.53.53,0,0,0,.18-.39.77.77,0,0,0-.28-.42l-.26-.25ZM31,58.82,33.71,56l.95.9a1.24,1.24,0,0,1,.46.76,1,1,0,0,1-.35.75,1.11,1.11,0,0,1-.51.34.56.56,0,0,1-.48-.1q.28.46-.21,1l0,0-.34.39a1.3,1.3,0,0,0-.2.3.58.58,0,0,0-.05.26l-.63-.6a1.29,1.29,0,0,1,.13-.2l.24-.29.27-.3.07-.07a.6.6,0,0,0,.22-.44,1,1,0,0,0-.34-.5l-.18-.17L31.54,59.3Z" transform="translate(-2.73 -4.2)"/><path class="cls-8" d="M35,60l.48.46.09-.09a.83.83,0,0,0,.23-.35.29.29,0,0,0-.11-.26.28.28,0,0,0-.27-.09.82.82,0,0,0-.34.25l0,0L35,60m-.07,1.08.46.44,0,0,0,0a1,1,0,0,1-.68.37,1.05,1.05,0,0,1-.71-.35,1.37,1.37,0,0,1-.29-.37.71.71,0,0,1-.07-.37,1,1,0,0,1,.15-.45,4.92,4.92,0,0,1,.6-.72,4,4,0,0,1,.56-.52.86.86,0,0,1,.38-.16.78.78,0,0,1,.4.06,1.38,1.38,0,0,1,.41.28,1.21,1.21,0,0,1,.28.38.79.79,0,0,1,.07.41.93.93,0,0,1-.14.38,3.84,3.84,0,0,1-.46.55l-.15.16-1-.92-.05,0-.08.08a1.54,1.54,0,0,0-.35.48.27.27,0,0,0,.08.3.28.28,0,0,0,.28.08.9.9,0,0,0,.36-.26" transform="translate(-2.73 -4.2)"/><path class="cls-9" d="M37.21,63.08l0,0-.07.07a1.18,1.18,0,0,1-.72.43.92.92,0,0,1-.7-.3.86.86,0,0,1-.34-.77A3.49,3.49,0,0,1,37,60.78a.86.86,0,0,1,.79.29,1,1,0,0,1,.35.67,1,1,0,0,1-.35.7l-.07.08-.47-.45,0,0a.81.81,0,0,0,.21-.33.24.24,0,0,0-.08-.24.24.24,0,0,0-.24-.07.77.77,0,0,0-.31.23l-.7.74a1,1,0,0,0-.24.35.23.23,0,0,0,.08.24.24.24,0,0,0,.27.07,1.32,1.32,0,0,0,.4-.33l0,0Z" transform="translate(-2.73 -4.2)"/><path class="cls-9" d="M36.8,64.29l2.69-2.84.49.46-.86.91a.65.65,0,0,1,.36,0,.69.69,0,0,1,.32.18.64.64,0,0,1,.23.47.74.74,0,0,1-.24.5l-1.59,1.68-.48-.45,1.35-1.43a.77.77,0,0,0,.21-.31.23.23,0,0,0-.09-.21.29.29,0,0,0-.28-.09.86.86,0,0,0-.36.26l-1.29,1.36Z" transform="translate(-2.73 -4.2)"/><path class="cls-8" d="M40.36,65.12l.48.46.09-.09a.83.83,0,0,0,.23-.35.35.35,0,0,0-.38-.35.8.8,0,0,0-.34.25l0,0-.05.06m-.07,1.08.46.44,0,0,0,0a1,1,0,0,1-.68.37,1.05,1.05,0,0,1-.71-.35,1.33,1.33,0,0,1-.29-.37.7.7,0,0,1-.07-.36,1,1,0,0,1,.15-.45,4.92,4.92,0,0,1,.6-.72,4.1,4.1,0,0,1,.56-.52.89.89,0,0,1,.38-.16.78.78,0,0,1,.4.06,1.37,1.37,0,0,1,.41.28,1.2,1.2,0,0,1,.28.38.8.8,0,0,1,.07.41,1,1,0,0,1-.14.38,3.81,3.81,0,0,1-.46.55l-.15.16-1-.92-.05,0-.08.09a1.53,1.53,0,0,0-.35.48.27.27,0,0,0,.08.3.28.28,0,0,0,.28.08.9.9,0,0,0,.36-.26" transform="translate(-2.73 -4.2)"/><path class="cls-9" d="M40.47,67.76l2-2.14.48.46-.21.22a.77.77,0,0,1,.38,0,.67.67,0,0,1,.32.17.63.63,0,0,1,.23.47.75.75,0,0,1-.24.5l-1.58,1.68-.48-.45,1.35-1.43a.74.74,0,0,0,.2-.31.24.24,0,0,0-.09-.23.26.26,0,0,0-.27-.07,1,1,0,0,0-.36.27L41,68.23Z" transform="translate(-2.73 -4.2)"/><polygon class="cls-9" points="39.45 65.18 39.82 64.78 41.8 64.14 41.09 63.46 41.48 63.05 42.75 64.25 42.41 64.61 40.38 65.26 41.13 65.97 40.74 66.39 39.45 65.18"/><path class="cls-8" d="M45.49,70l.48.46.09-.09a.82.82,0,0,0,.23-.35.29.29,0,0,0-.11-.26.28.28,0,0,0-.27-.09.81.81,0,0,0-.34.25l0,0-.05.06M45.41,71l.46.44,0,0,0,0a1,1,0,0,1-.68.37,1.05,1.05,0,0,1-.71-.35,1.35,1.35,0,0,1-.29-.37.7.7,0,0,1-.08-.36,1,1,0,0,1,.15-.45,4.92,4.92,0,0,1,.6-.72,4.17,4.17,0,0,1,.56-.52.89.89,0,0,1,.39-.16.79.79,0,0,1,.4.06,1.37,1.37,0,0,1,.41.28,1.21,1.21,0,0,1,.28.38.79.79,0,0,1,.06.4.94.94,0,0,1-.14.38,3.74,3.74,0,0,1-.46.55l-.15.16-1-.92-.05,0-.08.09a1.53,1.53,0,0,0-.35.48.27.27,0,0,0,.08.3.29.29,0,0,0,.29.08.92.92,0,0,0,.36-.27" transform="translate(-2.73 -4.2)"/><path class="cls-9" d="M45.59,72.61l2-2.14.48.46-.21.22a.77.77,0,0,1,.38,0,.66.66,0,0,1,.32.17.63.63,0,0,1,.23.47.75.75,0,0,1-.24.5L47,73.94l-.48-.45,1.35-1.43a.72.72,0,0,0,.2-.31.24.24,0,0,0-.09-.23.26.26,0,0,0-.27-.07,1,1,0,0,0-.35.27l-1.28,1.36Z" transform="translate(-2.73 -4.2)"/><path class="cls-9" d="M48.71,74.06l-.14.14a.6.6,0,0,0-.17.25.19.19,0,0,0,.08.16l0,0,0,0-.36.38L48,74.9l-.1-.09a.64.64,0,0,1-.25-.42.85.85,0,0,1,.29-.5l1.21-1.28-.19-.18.35-.37.19.18.55-.58.5.47-.55.58.2.19-.35.37-.2-.19Z" transform="translate(-2.73 -4.2)"/><path class="cls-9" d="M48.49,75.35l2-2.14.47.45-.33.35a1.17,1.17,0,0,1,.51-.1.61.61,0,0,1,.37.17l-.57.6-.05-.06-.07-.07a.45.45,0,0,0-.67,0L49,75.83Z" transform="translate(-2.73 -4.2)"/><path class="cls-8" d="M51.49,75.65l.48.46.08-.09a.82.82,0,0,0,.23-.35.29.29,0,0,0-.11-.26.29.29,0,0,0-.27-.09.81.81,0,0,0-.34.25l0,0-.06.06m-.07,1.08.46.44,0,0,0,0a1,1,0,0,1-.68.37,1.05,1.05,0,0,1-.71-.35,1.34,1.34,0,0,1-.29-.37.71.71,0,0,1-.07-.36,1,1,0,0,1,.15-.45,4.92,4.92,0,0,1,.6-.72,4.08,4.08,0,0,1,.56-.52.89.89,0,0,1,.38-.16.79.79,0,0,1,.4.06,1.36,1.36,0,0,1,.41.28,1.19,1.19,0,0,1,.28.38.78.78,0,0,1,.06.41.93.93,0,0,1-.14.38,3.8,3.8,0,0,1-.46.55l-.15.16-1-.92-.05,0-.08.09a1.53,1.53,0,0,0-.35.48.27.27,0,0,0,.08.3.28.28,0,0,0,.28.08.9.9,0,0,0,.36-.27" transform="translate(-2.73 -4.2)"/><path class="cls-9" d="M51.6,78.29l2-2.14.48.46-.2.22a.76.76,0,0,1,.38,0,.65.65,0,0,1,.32.17.63.63,0,0,1,.23.47.75.75,0,0,1-.24.5L53,79.63l-.48-.45,1.35-1.43a.73.73,0,0,0,.2-.31A.24.24,0,0,0,54,77.2a.26.26,0,0,0-.27-.07,1,1,0,0,0-.35.27l-1.28,1.36Z" transform="translate(-2.73 -4.2)"/></g><path class="cls-9" d="M11.35,56.29a9.88,9.88,0,0,1,1.46.18,2.12,2.12,0,0,1,.81.32,1.49,1.49,0,0,1,.53.64A2.59,2.59,0,0,1,14,59.27a1.51,1.51,0,0,1-.6.57,2.18,2.18,0,0,1-.85.22,10.19,10.19,0,0,1-1.47,0,9.94,9.94,0,0,1-1.46-.18,2.25,2.25,0,0,1-.82-.32,1.51,1.51,0,0,1-.52-.64,2.58,2.58,0,0,1,.11-1.84,1.49,1.49,0,0,1,.6-.56,2.11,2.11,0,0,1,.84-.22A9.88,9.88,0,0,1,11.35,56.29Zm-.07,1.1a5.71,5.71,0,0,0-1.81.05.62.62,0,0,0-.41.59.6.6,0,0,0,.32.63,5.81,5.81,0,0,0,1.79.28A5.83,5.83,0,0,0,13,58.89a.69.69,0,0,0,.08-1.22A5.83,5.83,0,0,0,11.28,57.39Z" transform="translate(-2.73 -4.2)"/><path class="cls-9" d="M6.78,61l5.81-.14,0,1h-.45a.91.91,0,0,1,.44.33,1,1,0,0,1,.16.54.92.92,0,0,1-.48.9,4.22,4.22,0,0,1-1.76.3,4.49,4.49,0,0,1-1.82-.21.89.89,0,0,1-.52-.86,1,1,0,0,1,.11-.52.87.87,0,0,1,.36-.34L6.81,62Zm3.84.88A4.8,4.8,0,0,0,9.29,62a.41.41,0,0,0-.27.42.36.36,0,0,0,.25.36,4.38,4.38,0,0,0,1.21.07,4.37,4.37,0,0,0,1.19-.13.36.36,0,0,0,.25-.37.41.41,0,0,0-.24-.41A3,3,0,0,0,10.62,61.86Z" transform="translate(-2.73 -4.2)"/><path class="cls-9" d="M10.07,66.67l.1.94H10a1.47,1.47,0,0,1-1.12-.24,1.56,1.56,0,0,1-.46-1.08,2,2,0,0,1,0-.69,1,1,0,0,1,.27-.48,1.48,1.48,0,0,1,.6-.36,7.36,7.36,0,0,1,1.36-.23,5.85,5.85,0,0,1,1.14,0,1.29,1.29,0,0,1,.58.2,1.16,1.16,0,0,1,.39.45,2,2,0,0,1,.19.7,1.76,1.76,0,0,1-.05.7,1.16,1.16,0,0,1-.32.52,1.36,1.36,0,0,1-.52.29,5.78,5.78,0,0,1-1,.18l-.33,0-.2-2h-.1l-.17,0a2.3,2.3,0,0,0-.85.2.4.4,0,0,0-.21.41.42.42,0,0,0,.24.36A1.32,1.32,0,0,0,10.07,66.67Zm1.12-1.13.1,1,.18,0a1.23,1.23,0,0,0,.6-.17.51.51,0,0,0-.08-.76,1.2,1.2,0,0,0-.62,0Z" transform="translate(-2.73 -4.2)"/><path class="cls-9" d="M8.88,68.8,13.16,68l.18,1-.43.08a1.13,1.13,0,0,1,.48.3,1,1,0,0,1,.23.49.94.94,0,0,1-.13.76,1.1,1.1,0,0,1-.72.39l-3.36.62-.18-1,2.87-.53a1.06,1.06,0,0,0,.51-.19.35.35,0,0,0,.09-.35.39.39,0,0,0-.25-.32,1.41,1.41,0,0,0-.66,0l-2.72.51Z" transform="translate(-2.73 -4.2)"/><path class="cls-9" d="M11.26,72.19l.87-.22.46,1.78-.87.22Z" transform="translate(-2.73 -4.2)"/><path class="cls-9" d="M10.23,75l5.9-.61.46,1.37-5.07,3.09-.37-1.1L12.44,77,12,75.87l-1.47.2Zm2.7.73.29.87,2.15-1.21Z" transform="translate(-2.73 -4.2)"/><path class="cls-9" d="M14.48,81.47l-.09,0-.14.06a1.76,1.76,0,0,1-1.23.16,1.36,1.36,0,0,1-.78-.83,1.27,1.27,0,0,1,0-1.24,3.5,3.5,0,0,1,1.53-1,3.51,3.51,0,0,1,1.78-.42,1.27,1.27,0,0,1,.9.86,1.41,1.41,0,0,1,.09,1.12,1.55,1.55,0,0,1-.88.75l-.14.06-.38-.88.09,0a1.19,1.19,0,0,0,.48-.32.36.36,0,0,0,0-.37.36.36,0,0,0-.29-.24,1.12,1.12,0,0,0-.56.13l-1.38.59a1.42,1.42,0,0,0-.53.34.35.35,0,0,0,0,.38.36.36,0,0,0,.33.25,2,2,0,0,0,.74-.21l.09,0Z" transform="translate(-2.73 -4.2)"/><path class="cls-9" d="M16.12,84.72l-.08.05-.13.07a1.75,1.75,0,0,1-1.22.25,1.35,1.35,0,0,1-.84-.76,1.28,1.28,0,0,1-.1-1.24A3.5,3.5,0,0,1,15.2,82a3.51,3.51,0,0,1,1.75-.55,1.27,1.27,0,0,1,1,.79,1.41,1.41,0,0,1,.18,1.1,1.55,1.55,0,0,1-.82.82l-.14.07-.45-.85.09,0a1.19,1.19,0,0,0,.46-.35.35.35,0,0,0,0-.37.36.36,0,0,0-.31-.22,1.13,1.13,0,0,0-.55.17l-1.33.7a1.39,1.39,0,0,0-.51.38.35.35,0,0,0,0,.38.36.36,0,0,0,.35.22,1.94,1.94,0,0,0,.72-.26l.08,0Z" transform="translate(-2.73 -4.2)"/><path class="cls-9" d="M17.38,87.17l.5.8-.07,0-.07,0a1.48,1.48,0,0,1-1.11.28,1.56,1.56,0,0,1-.89-.77,2,2,0,0,1-.28-.63,1,1,0,0,1,0-.55,1.49,1.49,0,0,1,.38-.59A7.46,7.46,0,0,1,17,85a5.85,5.85,0,0,1,1-.54,1.28,1.28,0,0,1,.61-.08,1.14,1.14,0,0,1,.55.23,2,2,0,0,1,.48.55,1.78,1.78,0,0,1,.26.65,1.17,1.17,0,0,1-.06.61,1.39,1.39,0,0,1-.34.49,5.7,5.7,0,0,1-.86.62l-.28.18L17.31,86l-.09,0-.15.09a2.28,2.28,0,0,0-.67.56.4.4,0,0,0,0,.46.42.42,0,0,0,.38.22A1.34,1.34,0,0,0,17.38,87.17Zm.51-1.51.52.83.16-.1A1.23,1.23,0,0,0,19,86a.51.51,0,0,0-.41-.64,1.18,1.18,0,0,0-.58.23Z" transform="translate(-2.73 -4.2)"/><path class="cls-9" d="M18.34,88.69l.54.73-.1.07a.93.93,0,0,0-.36.41.44.44,0,0,0,.1.4.47.47,0,0,0,.29.2.41.41,0,0,0,.32-.09c.13-.1.19-.34.17-.73,0-.1,0-.18,0-.23V89.4a2,2,0,0,1,.54-1.78,1.09,1.09,0,0,1,.92-.24,1.57,1.57,0,0,1,.87.66,1.33,1.33,0,0,1,.32,1,1.4,1.4,0,0,1-.62.87l-.07.05-.53-.71.07-.05a.73.73,0,0,0,.3-.37.46.46,0,0,0-.11-.39.43.43,0,0,0-.26-.18.35.35,0,0,0-.29.07.46.46,0,0,0-.17.25,2.15,2.15,0,0,0,0,.57v.28a1.94,1.94,0,0,1-.51,1.74,1.11,1.11,0,0,1-.94.23,1.58,1.58,0,0,1-.88-.66,1.21,1.21,0,0,1,.29-2l.07,0Z" transform="translate(-2.73 -4.2)"/><path class="cls-9" d="M20.5,91.5l.59.69-.09.08a.93.93,0,0,0-.33.43.44.44,0,0,0,.13.39.47.47,0,0,0,.3.18.41.41,0,0,0,.32-.11q.19-.16.12-.74l0-.23v-.06a2,2,0,0,1,.41-1.81,1.09,1.09,0,0,1,.9-.3,1.58,1.58,0,0,1,.91.59,1.34,1.34,0,0,1,.39,1,1.4,1.4,0,0,1-.56.92l-.07.06-.58-.67.07-.06a.73.73,0,0,0,.27-.39.46.46,0,0,0-.14-.38.42.42,0,0,0-.27-.16.35.35,0,0,0-.28.09.46.46,0,0,0-.15.26,2.18,2.18,0,0,0,0,.57l0,.27a1.94,1.94,0,0,1-.39,1.77,1.11,1.11,0,0,1-.92.3,1.57,1.57,0,0,1-.93-.59,1.21,1.21,0,0,1,.15-2l.06-.05Z" transform="translate(-2.73 -4.2)"/><path class="cls-9" d="M23,94l.64-.63L25,94.66l-.64.63Z" transform="translate(-2.73 -4.2)"/><path class="cls-9" d="M23.77,97.26l3.83-4.34L29,94.2a1.83,1.83,0,0,1,.71,1.1,1.52,1.52,0,0,1-.48,1.13,1.66,1.66,0,0,1-.74.53.83.83,0,0,1-.71-.12q.44.66-.26,1.5l0,.06L27,99a2,2,0,0,0-.29.45.88.88,0,0,0-.07.39l-1-.85a1.89,1.89,0,0,1,.18-.3c.08-.11.19-.25.35-.44l.39-.46.1-.12A.89.89,0,0,0,27,97a1.41,1.41,0,0,0-.53-.72L26.23,96,24.55,98Zm3-1.82.46.41a.9.9,0,0,0,.61.29,1,1,0,0,0,.58-.38.77.77,0,0,0,.25-.59,1.14,1.14,0,0,0-.43-.61l-.4-.35Z" transform="translate(-2.73 -4.2)"/><path class="cls-9" d="M29.86,100.34l.76.56,0,.07,0,.07a1.47,1.47,0,0,1-.93.67,1.56,1.56,0,0,1-1.11-.39,1.94,1.94,0,0,1-.49-.48,1,1,0,0,1-.18-.52,1.48,1.48,0,0,1,.14-.69,7.32,7.32,0,0,1,.75-1.16,6,6,0,0,1,.73-.87,1.3,1.3,0,0,1,.54-.3,1.15,1.15,0,0,1,.6,0,2,2,0,0,1,.65.33,1.79,1.79,0,0,1,.49.51,1.17,1.17,0,0,1,.17.58,1.38,1.38,0,0,1-.14.58,5.67,5.67,0,0,1-.57.9l-.2.27-1.59-1.17-.07.08-.1.14a2.29,2.29,0,0,0-.42.77.4.4,0,0,0,.17.43.42.42,0,0,0,.43.07A1.33,1.33,0,0,0,29.86,100.34Zm-.09-1.59.79.58.11-.15a1.23,1.23,0,0,0,.28-.56.42.42,0,0,0-.21-.36.42.42,0,0,0-.41-.08,1.2,1.2,0,0,0-.45.43Z" transform="translate(-2.73 -4.2)"/><path class="cls-9" d="M29.9,103.91,33,99l.81.5-.24.39a.91.91,0,0,1,.52-.18,1,1,0,0,1,.53.16.92.92,0,0,1,.49.89,4.26,4.26,0,0,1-.71,1.64,4.49,4.49,0,0,1-1.17,1.41.89.89,0,0,1-1,0,1,1,0,0,1-.38-.37.87.87,0,0,1-.09-.49l-1,1.56Zm2.84-2.73a4.8,4.8,0,0,0-.61,1.2.41.41,0,0,0,.2.46.36.36,0,0,0,.44,0,7.42,7.42,0,0,0,1.26-2,.36.36,0,0,0-.18-.41.42.42,0,0,0-.47,0A3,3,0,0,0,32.74,101.18Z" transform="translate(-2.73 -4.2)"/><path class="cls-9" d="M34.92,102.76A3.39,3.39,0,0,1,36,101.31a1.7,1.7,0,0,1,2.12,1.09,5,5,0,0,1-1.65,3.21,1.71,1.71,0,0,1-2.12-1.09A3.39,3.39,0,0,1,34.92,102.76Zm.94.43,0,.09a4.24,4.24,0,0,0-.47,1.14.39.39,0,0,0,.25.38.41.41,0,0,0,.46,0,3.35,3.35,0,0,0,.6-.93l.08-.16.11-.22a3.14,3.14,0,0,0,.39-1,.4.4,0,0,0-.25-.37.4.4,0,0,0-.44,0,2.67,2.67,0,0,0-.54.81Z" transform="translate(-2.73 -4.2)"/><path class="cls-9" d="M38,105.16l.84.35,0,.12a.94.94,0,0,0-.1.54.44.44,0,0,0,.29.29.47.47,0,0,0,.35,0,.41.41,0,0,0,.23-.24q.1-.23-.23-.71l-.13-.19,0,0a2,2,0,0,1-.45-1.8,1.09,1.09,0,0,1,.67-.68,1.56,1.56,0,0,1,1.08.12,1.33,1.33,0,0,1,.79.69,1.4,1.4,0,0,1-.09,1.07l0,.08-.82-.34,0-.08a.73.73,0,0,0,.07-.47.46.46,0,0,0-.29-.28.42.42,0,0,0-.32,0,.35.35,0,0,0-.21.21.45.45,0,0,0,0,.3,2.15,2.15,0,0,0,.27.5l.15.23a1.94,1.94,0,0,1,.45,1.76,1.12,1.12,0,0,1-.69.68,1.57,1.57,0,0,1-1.09-.12,1.21,1.21,0,0,1-.75-1.83l0-.07Z" transform="translate(-2.73 -4.2)"/><path class="cls-9" d="M40.92,107.9l1.45-4.1.94.33-1.45,4.1Zm1.63-4.61.3-.85.94.33-.3.85Z" transform="translate(-2.73 -4.2)"/><path class="cls-9" d="M44.32,107.27l-.09.28a.93.93,0,0,0-.07.44.28.28,0,0,0,.21.16l.06,0h0l-.23.75-.33-.07-.19-.05a1,1,0,0,1-.61-.4,1.27,1.27,0,0,1,.06-.85l.76-2.49-.37-.11.22-.71.37.11.35-1.14,1,.29-.35,1.14.4.12-.22.71-.4-.12Z" transform="translate(-2.73 -4.2)"/><path class="cls-9" d="M45.43,107a3.38,3.38,0,0,1,.75-1.68,1.7,1.7,0,0,1,2.32.55,5,5,0,0,1-.84,3.51,1.71,1.71,0,0,1-2.32-.55A3.37,3.37,0,0,1,45.43,107Zm1,.19,0,.1a4.2,4.2,0,0,0-.19,1.23.39.39,0,0,0,.33.31.41.41,0,0,0,.44-.11,3.35,3.35,0,0,0,.36-1l0-.17.06-.24a3.18,3.18,0,0,0,.14-1.07.4.4,0,0,0-.33-.31.4.4,0,0,0-.43.11,2.59,2.59,0,0,0-.33.92Z" transform="translate(-2.73 -4.2)"/><path class="cls-9" d="M48.84,110l.72-4.29.95.16-.12.7a1.71,1.71,0,0,1,.54-.54.9.9,0,0,1,.6-.09l-.2,1.2-.11,0-.14,0a.69.69,0,0,0-.54.1.7.7,0,0,0-.27.48l-.42,2.51Z" transform="translate(-2.73 -4.2)"/><path class="cls-9" d="M51.57,110.48l.51-4.32,1,.12-.51,4.32Zm.58-4.85.11-.89,1,.12-.11.89Z" transform="translate(-2.73 -4.2)"/><path class="cls-9" d="M56.78,106.5l-.25,4.34-1-.06,0-.43a1.1,1.1,0,0,1-.41.39,1,1,0,0,1-.54.11.93.93,0,0,1-.7-.31,1.11,1.11,0,0,1-.2-.79l.2-3.41,1,.06-.17,2.84a1.28,1.28,0,0,0,.06.6.36.36,0,0,0,.32.18.38.38,0,0,0,.37-.16,1.42,1.42,0,0,0,.14-.64l.16-2.77Z" transform="translate(-2.73 -4.2)"/><path class="cls-9" d="M57.65,110.9l-.18-4.34.93,0,0,.5a1.11,1.11,0,0,1,.39-.5,1.27,1.27,0,0,1,.64-.17,1,1,0,0,1,.56.12.8.8,0,0,1,.36.39,1.3,1.3,0,0,1,.41-.44,1.18,1.18,0,0,1,.56-.15,1,1,0,0,1,.79.25,1.2,1.2,0,0,1,.3.83l.14,3.34-1,0L61.46,108a1.34,1.34,0,0,0-.13-.66.44.44,0,0,0-.39-.13.41.41,0,0,0-.37.19,1.23,1.23,0,0,0-.08.63l.12,2.8-1,0L59.49,108a1.23,1.23,0,0,0-.13-.6.39.39,0,0,0-.37-.15.44.44,0,0,0-.38.19,1.07,1.07,0,0,0-.09.58l.12,2.84Z" transform="translate(-2.73 -4.2)"/><path class="cls-9" d="M67.89,105.42l.8,4.27-1,.18-.08-.42a1.09,1.09,0,0,1-.3.47,1,1,0,0,1-.49.23.93.93,0,0,1-.76-.13,1.11,1.11,0,0,1-.39-.72L65.06,106l1-.18.53,2.79a1.26,1.26,0,0,0,.21.57.36.36,0,0,0,.36.1.38.38,0,0,0,.32-.24,1.39,1.39,0,0,0,0-.65l-.51-2.73Z" transform="translate(-2.73 -4.2)"/><path class="cls-9" d="M69.83,109.48l-1.15-4.2,1-.26.12.42a1.15,1.15,0,0,1,.26-.5,1,1,0,0,1,.47-.27.94.94,0,0,1,.77.07,1.1,1.1,0,0,1,.45.68l.9,3.3-.94.26-.77-2.81a1.07,1.07,0,0,0-.24-.49.36.36,0,0,0-.36-.06.39.39,0,0,0-.3.28,1.41,1.41,0,0,0,.07.66l.73,2.67Z" transform="translate(-2.73 -4.2)"/><path class="cls-9" d="M75.3,107.25a.94.94,0,0,1-.18.52,1,1,0,0,1-.46.32.91.91,0,0,1-1-.17,4.22,4.22,0,0,1-.85-1.57,4.47,4.47,0,0,1-.38-1.79.9.9,0,0,1,.65-.77,1,1,0,0,1,.53-.06A.84.84,0,0,1,74,104l-.62-1.7.95-.34,2,5.44-.9.32Zm-1.56-1.33a4.81,4.81,0,0,0,.52,1.16.36.36,0,0,0,.43.12.41.41,0,0,0,.31-.36,2.6,2.6,0,0,0-.22-.93,5.4,5.4,0,0,0-.6-1.32.41.41,0,0,0-.48-.13.36.36,0,0,0-.26.36A3.92,3.92,0,0,0,73.74,105.92Z" transform="translate(-2.73 -4.2)"/><path class="cls-9" d="M78.39,104.58l-.4-.81,1.65-.81.4.81Z" transform="translate(-2.73 -4.2)"/><path class="cls-9" d="M81.73,104.93l-2.93-5L80.42,99a1.68,1.68,0,0,1,1.26-.29,1.76,1.76,0,0,1,1,.89,1.78,1.78,0,0,1,.3,1.3,1.61,1.61,0,0,1-.84,1l-.68.4,1.24,2.12ZM81,101.6l.39-.23a1,1,0,0,0,.51-.53.91.91,0,0,0-.17-.68.93.93,0,0,0-.5-.48,1,1,0,0,0-.71.2l-.4.24Z" transform="translate(-2.73 -4.2)"/><path class="cls-9" d="M85.41,97.35l2.51,3.55-.81.57-.25-.35a1.1,1.1,0,0,1-.08.56,1,1,0,0,1-.35.42.94.94,0,0,1-.74.2,1.11,1.11,0,0,1-.65-.49l-2-2.79.79-.56,1.64,2.32a1.27,1.27,0,0,0,.42.43.36.36,0,0,0,.36-.06.38.38,0,0,0,.19-.36,1.42,1.42,0,0,0-.29-.58l-1.6-2.27Z" transform="translate(-2.73 -4.2)"/><path class="cls-9" d="M88.77,100.22l-3.71-4.44.78-.64L87,96.52A.88.88,0,0,1,87,96a1,1,0,0,1,.32-.42.89.89,0,0,1,1-.18,4.51,4.51,0,0,1,1.35,1.23,4.25,4.25,0,0,1,.94,1.52.91.91,0,0,1-.36,1,1,1,0,0,1-.51.23.91.91,0,0,1-.54-.11l.29.35ZM87.6,96.48a.41.41,0,0,0-.13.48,4.74,4.74,0,0,0,.77,1.1,3,3,0,0,0,.76.73.41.41,0,0,0,.46-.08.36.36,0,0,0,.12-.43,4.36,4.36,0,0,0-.69-1,4.43,4.43,0,0,0-.85-.87A.36.36,0,0,0,87.6,96.48Z" transform="translate(-2.73 -4.2)"/><path class="cls-9" d="M91.7,97.65l-4-4.21.73-.68,4,4.21Z" transform="translate(-2.73 -4.2)"/><path class="cls-9" d="M89.68,92.84,89,92.21l.7-.71.64.63Zm3.49,3.42-3.11-3,.7-.71,3.11,3Z" transform="translate(-2.73 -4.2)"/><path class="cls-9" d="M94.59,94.83,90.23,91l.64-.73,2.28,2-.6-1.72.7-.79.53,1.91,2.75.94-.72.82-1.72-.67.13.44,1,.89Z" transform="translate(-2.73 -4.2)"/><path class="cls-9" d="M98.2,90.38l-.15,0-.25-.12a1.07,1.07,0,0,1,.08.57,1.19,1.19,0,0,1-.24.55,1,1,0,0,1-.73.42,1.41,1.41,0,0,1-.91-.34,1.37,1.37,0,0,1-.54-.71,2.53,2.53,0,0,1,.07-1.15l0-.22c.1-.41.06-.69-.12-.83a.43.43,0,0,0-.32-.1.47.47,0,0,0-.29.2.52.52,0,0,0-.12.41.68.68,0,0,0,.29.38l.07.05-.59.78a1.4,1.4,0,0,1-.64-.93,1.65,1.65,0,0,1,.42-1.12,1.6,1.6,0,0,1,.91-.71,1.45,1.45,0,0,1,1,.39l2,1.47a1.53,1.53,0,0,0,.28.17,1.18,1.18,0,0,0,.3.09ZM96.3,89.13a2.73,2.73,0,0,0-.05.92.78.78,0,0,0,.31.48.68.68,0,0,0,.4.17.4.4,0,0,0,.31-.19.42.42,0,0,0,.05-.45,1.4,1.4,0,0,0-.47-.52Z" transform="translate(-2.73 -4.2)"/><path class="cls-9" d="M98.53,87.11l.25.16a.91.91,0,0,0,.41.19.28.28,0,0,0,.21-.15l0-.06,0,0,.65.43-.16.3-.1.17a1,1,0,0,1-.55.47,1.27,1.27,0,0,1-.8-.3l-2.18-1.43-.21.33-.62-.41.21-.33-1-.65.55-.84,1,.65.23-.35.63.41-.23.35Z" transform="translate(-2.73 -4.2)"/><path class="cls-9" d="M96.28,84.48,95.51,84l.51-.86.77.46Zm4.2,2.51-3.73-2.23.51-.86L101,86.13Z" transform="translate(-2.73 -4.2)"/><path class="cls-9" d="M99.52,84.37a3.4,3.4,0,0,1-1.45-1.13,1.7,1.7,0,0,1,1.1-2.12,5,5,0,0,1,3.2,1.66,1.71,1.71,0,0,1-1.1,2.12A3.4,3.4,0,0,1,99.52,84.37Zm.44-.93.09,0a4.22,4.22,0,0,0,1.14.48.39.39,0,0,0,.38-.24.41.41,0,0,0,0-.46,3.33,3.33,0,0,0-.93-.6l-.16-.08-.22-.11a3.15,3.15,0,0,0-1-.4.4.4,0,0,0-.38.25.4.4,0,0,0,0,.44,2.59,2.59,0,0,0,.81.54Z" transform="translate(-2.73 -4.2)"/><path class="cls-9" d="M103.31,81.79l-4-1.69.38-.91.41.17a1.16,1.16,0,0,1-.23-.52,1,1,0,0,1,.07-.54,1,1,0,0,1,.53-.56,1.1,1.1,0,0,1,.81.07l3.15,1.33L104,80l-2.69-1.13a1.08,1.08,0,0,0-.54-.12.36.36,0,0,0-.27.24.38.38,0,0,0,0,.41,1.41,1.41,0,0,0,.56.35l2.55,1.08Z" transform="translate(-2.73 -4.2)"/><path class="cls-9" d="M103.42,77.73l.29-.86.12,0a.93.93,0,0,0,.54.06.44.44,0,0,0,.27-.31.46.46,0,0,0,0-.35.4.4,0,0,0-.26-.21c-.16-.05-.39,0-.7.28l-.18.14,0,0a2,2,0,0,1-1.76.58,1.1,1.1,0,0,1-.72-.62,1.58,1.58,0,0,1,0-1.09,1.34,1.34,0,0,1,.63-.84,1.41,1.41,0,0,1,1.07,0l.08,0-.28.84-.09,0a.73.73,0,0,0-.48,0,.47.47,0,0,0-.26.32.43.43,0,0,0,0,.32.36.36,0,0,0,.22.19.45.45,0,0,0,.3,0,2.16,2.16,0,0,0,.48-.31l.22-.17q1-.81,1.72-.58a1.11,1.11,0,0,1,.73.63,1.57,1.57,0,0,1,0,1.1,1.21,1.21,0,0,1-1.76.89l-.08,0Z" transform="translate(-2.73 -4.2)"/><path class="cls-9" d="M106,72.58a.93.93,0,0,1,.33.44,1,1,0,0,1,0,.56.92.92,0,0,1-.7.74,4.23,4.23,0,0,1-1.78-.17,4.49,4.49,0,0,1-1.7-.68.9.9,0,0,1-.27-1,1,1,0,0,1,.24-.47.85.85,0,0,1,.43-.24l-1.75-.44.24-1,5.62,1.4-.23.93Zm-2,.55a4.8,4.8,0,0,0,1.25.21.36.36,0,0,0,.34-.29.41.41,0,0,0-.12-.45,2.61,2.61,0,0,0-.89-.34,5.3,5.3,0,0,0-1.42-.24.41.41,0,0,0-.38.33.36.36,0,0,0,.15.41A3.84,3.84,0,0,0,104,73.13Z" transform="translate(-2.73 -4.2)"/><path class="cls-9" d="M102.05,69.81l-.89-.16.18-1,.89.16Zm4.81.89-4.28-.79.18-1,4.28.79Z" transform="translate(-2.73 -4.2)"/><path class="cls-9" d="M106,66.64l.12-.94h.17a1.47,1.47,0,0,1,1,.49,1.55,1.55,0,0,1,.21,1.16,2,2,0,0,1-.18.66,1,1,0,0,1-.37.41,1.47,1.47,0,0,1-.67.22,7.31,7.31,0,0,1-1.38-.08,6.09,6.09,0,0,1-1.12-.21,1.32,1.32,0,0,1-.52-.32,1.16,1.16,0,0,1-.28-.53,2.06,2.06,0,0,1,0-.73,1.8,1.8,0,0,1,.21-.67,1.18,1.18,0,0,1,.43-.43,1.41,1.41,0,0,1,.57-.16,5.8,5.8,0,0,1,1.06.06l.33,0-.24,2,.1,0,.17,0a2.31,2.31,0,0,0,.88,0,.4.4,0,0,0,.29-.36.42.42,0,0,0-.15-.41A1.33,1.33,0,0,0,106,66.64Zm-1.35.85.12-1-.18,0a1.23,1.23,0,0,0-.62,0,.42.42,0,0,0-.22.36.42.42,0,0,0,.13.4,1.2,1.2,0,0,0,.59.19Z" transform="translate(-2.73 -4.2)"/><path class="cls-9" d="M107.67,64.79l-4.34-.19,0-1,.44,0a1.14,1.14,0,0,1-.4-.4,1,1,0,0,1-.12-.53,1,1,0,0,1,.3-.71,1.1,1.1,0,0,1,.79-.22l3.41.15,0,1-2.91-.13a1.08,1.08,0,0,0-.54.07.36.36,0,0,0-.17.32.38.38,0,0,0,.18.37,1.4,1.4,0,0,0,.64.14l2.77.12Z" transform="translate(-2.73 -4.2)"/><path class="cls-9" d="M106.27,60.95l0-.9h.12a.94.94,0,0,0,.53-.13.44.44,0,0,0,.14-.39.47.47,0,0,0-.12-.33.41.41,0,0,0-.32-.11c-.16,0-.35.17-.56.5l-.12.2,0,0Q105.17,61,104.44,61a1.1,1.1,0,0,1-.9-.33,1.57,1.57,0,0,1-.34-1,1.33,1.33,0,0,1,.31-1,1.4,1.4,0,0,1,1-.36h.09l0,.89h-.09a.72.72,0,0,0-.46.13.46.46,0,0,0-.13.38.43.43,0,0,0,.11.3.35.35,0,0,0,.28.1.45.45,0,0,0,.28-.11,2.12,2.12,0,0,0,.35-.46l.15-.23q.69-1.12,1.41-1.14a1.11,1.11,0,0,1,.91.34,1.57,1.57,0,0,1,.35,1A1.21,1.21,0,0,1,106.44,61h-.17Z" transform="translate(-2.73 -4.2)"/><path class="cls-9" d="M105.9,56.27l.29,0a.94.94,0,0,0,.44-.1.28.28,0,0,0,.07-.25.59.59,0,0,0,0-.07v0l.78-.07.06.34c0,.08,0,.15,0,.2a.94.94,0,0,1-.14.71,1.27,1.27,0,0,1-.81.26l-2.6.23,0,.39-.75.07,0-.39-1.18.11-.09-1,1.18-.11,0-.42.75-.07,0,.42Z" transform="translate(-2.73 -4.2)"/><path class="cls-9" d="M33.24,21.95l-.6-1.1-.12-5.66-2.18,1.19-.56-1,3.47-1.9.55,1L34,20.12l2.36-1.29.6,1.1Z" transform="translate(-2.73 -4.2)"/><path class="cls-9" d="M39.08,16.86l1.12-.48,0,.1,0,.1A1.89,1.89,0,0,1,40.43,18a2,2,0,0,1-1.15,1,2.56,2.56,0,0,1-.85.23,1.33,1.33,0,0,1-.69-.15,1.89,1.89,0,0,1-.67-.6,9.34,9.34,0,0,1-.8-1.59,7.71,7.71,0,0,1-.49-1.38,1.66,1.66,0,0,1,0-.79,1.49,1.49,0,0,1,.41-.65,2.61,2.61,0,0,1,.79-.5,2.3,2.3,0,0,1,.88-.21,1.5,1.5,0,0,1,.76.19,1.8,1.8,0,0,1,.55.53,7.34,7.34,0,0,1,.62,1.22l.17.39-2.34,1,0,.13.09.21a2.94,2.94,0,0,0,.58,1,.51.51,0,0,0,.58.1.53.53,0,0,0,.36-.43A1.7,1.7,0,0,0,39.08,16.86Zm-1.82-.94,1.15-.5-.09-.22a1.58,1.58,0,0,0-.44-.67.54.54,0,0,0-.54,0,.54.54,0,0,0-.36.4,1.54,1.54,0,0,0,.18.78Z" transform="translate(-2.73 -4.2)"/><path class="cls-9" d="M41.82,17.89,40,12.58l1.17-.39.29.86a2.27,2.27,0,0,1,.28-.95,1.17,1.17,0,0,1,.62-.47l.5,1.49-.14,0-.17.05a.89.89,0,0,0-.55.44.9.9,0,0,0,0,.71l1,3.11Z" transform="translate(-2.73 -4.2)"/><path class="cls-9" d="M45.91,14.48l.1.36a1.18,1.18,0,0,0,.23.53.36.36,0,0,0,.33,0l.08,0,.05,0,.26,1-.41.15-.24.07a1.21,1.21,0,0,1-.93,0,1.63,1.63,0,0,1-.51-1L44,12.33l-.49.13-.25-.93.49-.13-.39-1.48,1.25-.33L45,11.07l.52-.14.25.93-.52.14Z" transform="translate(-2.73 -4.2)"/><path class="cls-9" d="M46.23,10,46,8.89l1.26-.26.24,1.14Zm1.29,6.15L46.37,10.7l1.26-.26,1.14,5.47Z" transform="translate(-2.73 -4.2)"/><path class="cls-9" d="M49.94,15.81l-.71-4.58-.5.08-.15-1,.5-.08L49,9.73a1.5,1.5,0,0,1,.12-1.05A1.21,1.21,0,0,1,50,8.24l.28,0,.34,0,.15,1h-.12a.44.44,0,0,0-.29.13.39.39,0,0,0,0,.3l.08.51.52-.08L51,11l-.52.08.71,4.58Z" transform="translate(-2.73 -4.2)"/><path class="cls-9" d="M51.78,9.11,51.66,8l1.28-.13L53.06,9Zm.64,6.25L51.85,9.8l1.28-.13.57,5.56Z" transform="translate(-2.73 -4.2)"/><path class="cls-9" d="M54.36,15.25l0-1,1.75-3.55-1.87.08,0-1.09,3.32-.13,0,.94-1.8,3.63,2-.08,0,1.1Z" transform="translate(-2.73 -4.2)"/><path class="cls-9" d="M58.35,15.1l.12-5.59,1.28,0-.12,5.59Zm.13-6.28,0-1.16,1.29,0,0,1.16Z" transform="translate(-2.73 -4.2)"/><path class="cls-9" d="M63.35,13.4l1.21.11s0,.06,0,.11,0,.08,0,.11A1.89,1.89,0,0,1,64,15.09a2,2,0,0,1-1.48.31,2.54,2.54,0,0,1-.86-.21,1.33,1.33,0,0,1-.54-.46,1.9,1.9,0,0,1-.3-.85,9.42,9.42,0,0,1,.05-1.78,7.66,7.66,0,0,1,.23-1.44,1.67,1.67,0,0,1,.39-.69,1.48,1.48,0,0,1,.67-.38,2.58,2.58,0,0,1,.94-.06,2.28,2.28,0,0,1,.87.24,1.5,1.5,0,0,1,.57.53,1.82,1.82,0,0,1,.23.73,7.41,7.41,0,0,1,0,1.37l0,.42-2.53-.23s0,.08,0,.13,0,.12,0,.22a3,3,0,0,0,0,1.13.51.51,0,0,0,.47.36.54.54,0,0,0,.52-.21A1.7,1.7,0,0,0,63.35,13.4ZM62.2,11.7l1.25.12,0-.24a1.59,1.59,0,0,0-.07-.8.54.54,0,0,0-.47-.26.54.54,0,0,0-.51.18,1.54,1.54,0,0,0-.22.77C62.2,11.57,62.2,11.65,62.2,11.7Z" transform="translate(-2.73 -4.2)"/><path class="cls-9" d="M65.3,15.6l1-5.51,1.22.21-.16.9a2.24,2.24,0,0,1,.7-.7,1.16,1.16,0,0,1,.77-.11l-.27,1.55-.14,0-.18,0a.89.89,0,0,0-.69.13.9.9,0,0,0-.35.61l-.57,3.23Z" transform="translate(-2.73 -4.2)"/><path class="cls-9" d="M70.36,14.58l-.09.37a1.18,1.18,0,0,0-.05.57.36.36,0,0,0,.27.19l.08,0h.05l-.24,1L70,16.65l-.25-.05a1.22,1.22,0,0,1-.81-.46,1.63,1.63,0,0,1,0-1.09l.79-3.26-.49-.12.23-.93.49.12.36-1.48,1.26.31-.36,1.48.52.13-.23.93L71,12.09Z" transform="translate(-2.73 -4.2)"/><path class="cls-9" d="M75.82,18.51a.59.59,0,0,1,0-.2c0-.09,0-.2.07-.35a1.37,1.37,0,0,1-.67.29,1.54,1.54,0,0,1-.77-.1,1.21,1.21,0,0,1-.77-.76,1.82,1.82,0,0,1,.09-1.24,1.77,1.77,0,0,1,.68-.92,3.24,3.24,0,0,1,1.45-.32l.29,0c.55,0,.88-.17,1-.44a.54.54,0,0,0,0-.43.59.59,0,0,0-.35-.29.66.66,0,0,0-.55,0,.88.88,0,0,0-.37.49l0,.1-1.17-.45a1.8,1.8,0,0,1,.92-1.12,2.14,2.14,0,0,1,1.54.13,2.05,2.05,0,0,1,1.2.88,1.87,1.87,0,0,1-.11,1.44L77.1,18.15a1.87,1.87,0,0,0-.11.41A1.41,1.41,0,0,0,77,19Zm.88-2.8a3.48,3.48,0,0,0-1.16.26,1,1,0,0,0-.49.55.89.89,0,0,0-.07.56.52.52,0,0,0,.34.32.55.55,0,0,0,.58-.09,1.84,1.84,0,0,0,.47-.76Z" transform="translate(-2.73 -4.2)"/><path class="cls-9" d="M77.66,19.32l3.16-6.74,1.16.55-3.16,6.74Z" transform="translate(-2.73 -4.2)"/><path class="cls-9" d="M80.48,18.49l1,.57-.08.14a1.2,1.2,0,0,0-.2.67.57.57,0,0,0,.33.42.59.59,0,0,0,.44.08.52.52,0,0,0,.33-.28q.15-.28-.19-.95L82,18.87l0-.07a2.6,2.6,0,0,1-.32-2.37,1.41,1.41,0,0,1,1-.77A2,2,0,0,1,84,16a1.72,1.72,0,0,1,.91,1,1.81,1.81,0,0,1-.26,1.35l-.06.1-1-.55.06-.1a.93.93,0,0,0,.15-.59.59.59,0,0,0-.33-.4.55.55,0,0,0-.4-.07.45.45,0,0,0-.3.24.59.59,0,0,0-.07.38,2.83,2.83,0,0,0,.28.68l.16.32a2.49,2.49,0,0,1,.33,2.31,1.43,1.43,0,0,1-1,.78,2,2,0,0,1-1.38-.3,1.86,1.86,0,0,1-1-1,1.85,1.85,0,0,1,.28-1.4l.06-.09Z" transform="translate(-2.73 -4.2)"/><path class="cls-12" d="M45.11,95.1s0-.08,0-.15,0-.12,0-.15a5.09,5.09,0,0,1,.45-2.11,6.91,6.91,0,0,1,1.37-2l.49-.48a6.62,6.62,0,0,0,.82-.88,2.07,2.07,0,0,0,.27-.6A2.78,2.78,0,0,0,48.6,88a1.5,1.5,0,0,0-.22-.9.78.78,0,0,0-.67-.29.75.75,0,0,0-.69.36,2.27,2.27,0,0,0-.22,1.14c0,.1,0,.18,0,.23s0,.1,0,.14H45.16s0-.1,0-.17,0-.12,0-.15a3.17,3.17,0,0,1,.63-2.18,2.57,2.57,0,0,1,2-.69,2.76,2.76,0,0,1,1.95.62,2.34,2.34,0,0,1,.67,1.8,4,4,0,0,1-.12,1,3.3,3.3,0,0,1-.37.88,6.55,6.55,0,0,1-.88,1l-.55.57h0a7.58,7.58,0,0,0-1.54,2.12h3.37V95.1Z" transform="translate(-2.73 -4.2)"/><path class="cls-12" d="M51.44,90.33a21.27,21.27,0,0,1,.11-2.52,3.24,3.24,0,0,1,.36-1.24,2,2,0,0,1,.85-.8,3.56,3.56,0,0,1,2.61,0,2,2,0,0,1,.85.8,3.24,3.24,0,0,1,.36,1.24,21.14,21.14,0,0,1,.11,2.52,22.88,22.88,0,0,1-.1,2.56,3.4,3.4,0,0,1-.34,1.25,2.17,2.17,0,0,1-.86.87,3.31,3.31,0,0,1-2.63,0,2.13,2.13,0,0,1-.86-.87,3.26,3.26,0,0,1-.34-1.21A23,23,0,0,1,51.44,90.33Zm3.46.86V88.62a3.6,3.6,0,0,0-.18-1.45.83.83,0,0,0-1.33,0,3.91,3.91,0,0,0-.18,1.53v3.49a3.68,3.68,0,0,0,.18,1.46.83.83,0,0,0,1.33,0,4,4,0,0,0,.18-1.53Z" transform="translate(-2.73 -4.2)"/><path class="cls-12" d="M59.88,95.1V88.4h-2.1V87.27a3.42,3.42,0,0,0,1.82-.48,1.76,1.76,0,0,0,.77-1.27h1.17V95.1Z" transform="translate(-2.73 -4.2)"/><path class="cls-12" d="M65.83,89.32a1.28,1.28,0,0,1,.54-.48,2.13,2.13,0,0,1,2.42.57,3.93,3.93,0,0,1,.53,2.27,4.81,4.81,0,0,1-.61,2.78,2.36,2.36,0,0,1-2,.82A2.79,2.79,0,0,1,65.42,95a2.14,2.14,0,0,1-.85-.81,3.36,3.36,0,0,1-.37-1.28,20.78,20.78,0,0,1-.11-2.5,21.5,21.5,0,0,1,.11-2.5,3.55,3.55,0,0,1,.35-1.28,2.1,2.1,0,0,1,.89-.86,3.12,3.12,0,0,1,1.39-.27,2.51,2.51,0,0,1,1.7.52,1.87,1.87,0,0,1,.6,1.48v.14H67.48v-.09A.83.83,0,0,0,67.3,87a.75.75,0,0,0-.57-.19.73.73,0,0,0-.71.44,3.91,3.91,0,0,0-.21,1.53c0,.06,0,.15,0,.27S65.83,89.25,65.83,89.32Zm0,2.66a4,4,0,0,0,.2,1.52.7.7,0,0,0,.69.42.69.69,0,0,0,.67-.36,6.53,6.53,0,0,0,0-3.09.7.7,0,0,0-.68-.36.69.69,0,0,0-.68.41A3.83,3.83,0,0,0,65.83,92Z" transform="translate(-2.73 -4.2)"/></svg>